<svg width="202" height="69" viewBox="0 0 202 69" fill="none" xmlns="http://www.w3.org/2000/svg">
<path d="M185.914 0.671556H16.0951C15.4761 0.671556 14.8645 0.671556 14.247 0.674932C13.7303 0.678308 13.2176 0.688098 12.6959 0.69637C11.5624 0.709703 10.4315 0.809418 9.31316 0.994649C8.19638 1.18391 7.11457 1.54074 6.10434 2.05306C5.09538 2.56974 4.17347 3.24109 3.37206 4.04277C2.56643 4.84213 1.89487 5.76608 1.38319 6.7791C0.870095 7.79021 0.514321 8.87369 0.328158 9.99215C0.140211 11.1091 0.0390757 12.239 0.0256584 13.3716C0.00995952 13.8892 0.00827147 14.4084 0 14.9262V53.9442C0.00827147 54.4683 0.00995952 54.9761 0.0256584 55.5006C0.0390884 56.6331 0.140224 57.7628 0.328158 58.8797C0.513821 59.9988 0.869616 61.0828 1.38319 62.0943C1.89462 63.1041 2.56628 64.0243 3.37206 64.8193C4.17044 65.6245 5.09294 66.2963 6.10434 66.809C7.11456 67.3227 8.19625 67.6816 9.31316 67.8738C10.4317 68.0576 11.5624 68.1573 12.6959 68.1723C13.2175 68.1838 13.7303 68.1903 14.2472 68.1903C14.8645 68.1937 15.4761 68.1937 16.0951 68.1937H185.913C186.52 68.1937 187.137 68.1937 187.743 68.1903C188.258 68.1903 188.785 68.1838 189.3 68.1723C190.431 68.1581 191.559 68.0584 192.676 67.8738C193.796 67.6803 194.882 67.3214 195.897 66.809C196.907 66.296 197.829 65.6242 198.627 64.8193C199.43 64.0212 200.104 63.1016 200.621 62.0943C201.131 61.0821 201.483 59.9981 201.666 58.8797C201.855 57.7626 201.959 56.6331 201.98 55.5004C201.986 54.9761 201.987 54.4683 201.987 53.9442C202 53.3309 202 52.721 202 52.0978V16.7692C202 16.1508 202 15.5377 201.987 14.9262C201.987 14.4084 201.986 13.8892 201.98 13.3715C201.959 12.2387 201.855 11.1091 201.666 9.99198C201.483 8.87429 201.131 7.791 200.621 6.77927C199.579 4.74861 197.927 3.09566 195.897 2.05289C194.882 1.54183 193.796 1.1851 192.676 0.99448C191.56 0.808462 190.431 0.70874 189.3 0.696201C188.785 0.68793 188.258 0.67797 187.743 0.674763C187.137 0.671387 186.52 0.671387 185.913 0.671387L185.914 0.671556Z" fill="#A6A6A6"/>
<path d="M14.2552 66.7162C13.7409 66.7162 13.239 66.7096 12.7287 66.6981C11.6717 66.6844 10.6171 66.5924 9.57359 66.423C8.60059 66.2553 7.65803 65.9436 6.77699 65.4979C5.904 65.056 5.10776 64.4766 4.41878 63.7818C3.71977 63.0953 3.13781 62.299 2.69595 61.4245C2.24928 60.5443 1.94015 59.6009 1.77934 58.627C1.60574 57.5806 1.51184 56.5226 1.49845 55.4619C1.48764 55.1059 1.47363 53.9207 1.47363 53.9207V14.9255C1.47363 14.9255 1.48849 13.7584 1.49845 13.4154C1.51131 12.3565 1.6047 11.3001 1.77782 10.2553C1.93895 9.27883 2.24834 8.33267 2.69528 7.44962C3.13543 6.57571 3.71409 5.77878 4.40882 5.08972C5.10281 4.39412 5.90163 3.81169 6.77615 3.36369C7.65519 2.91956 8.59598 2.61005 9.56701 2.44555C10.6139 2.27442 11.6722 2.18194 12.733 2.16888L14.2561 2.14795H187.735L189.276 2.16939C190.328 2.18188 191.376 2.27363 192.414 2.44387C193.395 2.61048 194.345 2.92219 195.234 3.36875C196.986 4.27158 198.412 5.69996 199.311 7.45367C199.751 8.33067 200.055 9.26916 200.214 10.2373C200.39 11.2906 200.488 12.3552 200.508 13.4228C200.513 13.9009 200.513 14.4144 200.513 14.9255C200.526 15.5585 200.526 16.161 200.526 16.7685V52.0971C200.526 52.7104 200.526 53.3088 200.513 53.9121C200.513 54.4611 200.513 54.964 200.506 55.4815C200.486 56.5301 200.39 57.5758 200.217 58.6103C200.06 59.5912 199.752 60.542 199.306 61.4294C198.861 62.2943 198.282 63.0838 197.592 63.7685C196.902 64.467 196.104 65.0498 195.229 65.4945C194.343 65.9436 193.393 66.2564 192.414 66.4226C191.37 66.5931 190.316 66.6851 189.258 66.698C188.753 66.7098 188.248 66.7158 187.743 66.716L185.914 66.7194L14.2552 66.7162Z" fill="black"/>
<path d="M41.8113 34.9403C41.8295 33.5314 42.2037 32.1499 42.8992 30.9245C43.5947 29.6991 44.5889 28.6695 45.7892 27.9315C45.0267 26.8425 44.0207 25.9462 42.8512 25.3139C41.6817 24.6817 40.3808 24.3308 39.052 24.2892C36.2173 23.9916 33.4693 25.9854 32.0246 25.9854C30.5523 25.9854 28.3283 24.3187 25.9335 24.368C24.3844 24.418 22.8747 24.8685 21.5514 25.6754C20.2281 26.4824 19.1365 27.6184 18.3828 28.9727C15.1181 34.6252 17.5533 42.9321 20.6808 47.501C22.2454 49.7383 24.0739 52.2373 26.4667 52.1487C28.8081 52.0516 29.6825 50.6556 32.5089 50.6556C35.3091 50.6556 36.1295 52.1487 38.5708 52.0923C41.0833 52.0516 42.6661 49.8452 44.1759 47.5867C45.3001 45.9926 46.1652 44.2307 46.7391 42.3664C45.2794 41.749 44.0338 40.7156 43.1575 39.3951C42.2812 38.0745 41.813 36.5252 41.8113 34.9403ZM37.2002 21.2843C38.5701 19.6398 39.245 17.526 39.0816 15.392C36.9886 15.6118 35.0554 16.612 33.667 18.1935C32.9881 18.966 32.4682 19.8648 32.1369 20.8384C31.8057 21.8121 31.6695 22.8414 31.7363 23.8677C32.7832 23.8785 33.8188 23.6516 34.7652 23.2041C35.7117 22.7566 36.5442 22.1002 37.2002 21.2843ZM71.4086 46.4849H63.4184L61.4996 52.1507H58.115L65.6834 31.1884H69.1996L76.7679 52.1507H73.3258L71.4086 46.4849ZM64.2459 43.8703H70.5795L67.4572 34.6751H67.3698L64.2459 43.8703ZM93.1126 44.5101C93.1126 49.2592 90.5706 52.3106 86.7347 52.3106C85.7629 52.3614 84.7965 52.1376 83.946 51.6647C83.0956 51.1918 82.3955 50.489 81.9259 49.6367H81.8533V57.2066H78.7162V36.8676H81.7529V39.4096H81.8106C82.3017 38.5614 83.0136 37.8622 83.8705 37.3865C84.7275 36.9107 85.6973 36.6761 86.6769 36.7077C90.5557 36.7077 93.1126 39.7739 93.1126 44.5099V44.5101ZM89.8881 44.5101C89.8881 41.4159 88.2892 39.3816 85.8494 39.3816C83.4524 39.3816 81.8403 41.4586 81.8403 44.5099C81.8403 47.5894 83.4524 49.6517 85.8494 49.6517C88.2892 49.6517 89.8881 47.6323 89.8881 44.5099V44.5101ZM109.934 44.5101C109.934 49.2592 107.392 52.3106 103.556 52.3106C102.584 52.3614 101.618 52.1375 100.767 51.6646C99.9168 51.1918 99.2167 50.489 98.7472 49.6367H98.6746V57.2066H95.5375V36.8676H98.574V39.4096H98.6317C99.1229 38.5614 99.8348 37.8622 100.692 37.3865C101.549 36.9107 102.518 36.6761 103.498 36.7077C107.377 36.7077 109.934 39.7739 109.934 44.5099V44.5101ZM106.709 44.5101C106.709 41.4159 105.11 39.3816 102.671 39.3816C100.274 39.3816 98.6614 41.4586 98.6614 44.5099C98.6614 47.5894 100.274 49.6517 102.671 49.6517C105.11 49.6517 106.709 47.6323 106.709 44.5099V44.5101ZM121.051 46.3102C121.284 48.3889 123.303 49.7538 126.063 49.7538C128.707 49.7538 130.609 48.3889 130.609 46.5145C130.609 44.8873 129.462 43.9132 126.745 43.2455L124.028 42.5911C120.179 41.6613 118.392 39.8612 118.392 36.94C118.392 33.3232 121.544 30.839 126.02 30.839C130.449 30.839 133.486 33.3232 133.588 36.94H130.421C130.232 34.8481 128.502 33.5853 125.975 33.5853C123.448 33.5853 121.719 34.863 121.719 36.7224C121.719 38.2045 122.823 39.0766 125.525 39.744L127.835 40.3112C132.136 41.3282 133.923 43.056 133.923 46.122C133.923 50.0438 130.799 52.5001 125.83 52.5001C121.181 52.5001 118.043 50.1014 117.84 46.31L121.051 46.3102ZM140.693 33.2509V36.8676H143.599V39.3519H140.693V47.7773C140.693 49.0862 141.275 49.6961 142.553 49.6961C142.898 49.6901 143.242 49.6659 143.584 49.6235V52.0931C143.01 52.2004 142.426 52.2489 141.842 52.238C138.748 52.238 137.541 51.0759 137.541 48.1119V39.3519H135.319V36.8676H137.541V33.2509H140.693ZM145.282 44.5101C145.282 39.7013 148.115 36.6797 152.531 36.6797C156.962 36.6797 159.781 39.7013 159.781 44.5101C159.781 49.3318 156.977 52.3403 152.531 52.3403C148.086 52.3403 145.282 49.3318 145.282 44.5101ZM156.584 44.5101C156.584 41.2114 155.073 39.2644 152.531 39.2644C149.989 39.2644 148.479 41.2261 148.479 44.5101C148.479 47.8219 149.989 49.7538 152.531 49.7538C155.073 49.7538 156.584 47.8219 156.584 44.5101ZM162.367 36.8676H165.359V39.4689H165.432C165.634 38.6564 166.11 37.9384 166.78 37.4356C167.449 36.9328 168.271 36.6757 169.108 36.7077C169.47 36.7064 169.83 36.7457 170.183 36.8247V39.759C169.727 39.6196 169.25 39.5555 168.773 39.5695C168.318 39.551 167.863 39.6313 167.442 39.805C167.02 39.9787 166.641 40.2416 166.33 40.5756C166.02 40.9097 165.785 41.307 165.642 41.7402C165.5 42.1735 165.453 42.6325 165.505 43.0857V52.1507H162.367V36.8676ZM184.647 47.6618C184.225 50.4363 181.523 52.3403 178.066 52.3403C173.62 52.3403 170.86 49.3615 170.86 44.5825C170.86 39.7887 173.635 36.6797 177.934 36.6797C182.163 36.6797 184.821 39.5843 184.821 44.2182V45.293H174.027V45.4826C173.977 46.045 174.048 46.6116 174.234 47.1448C174.42 47.678 174.717 48.1654 175.106 48.5749C175.495 48.9843 175.966 49.3064 176.489 49.5196C177.012 49.7328 177.574 49.8323 178.138 49.8116C178.88 49.8811 179.624 49.7094 180.26 49.322C180.896 48.9347 181.39 48.3524 181.668 47.6618H184.647ZM174.042 43.1005H181.683C181.711 42.5948 181.634 42.0887 181.457 41.614C181.281 41.1393 181.008 40.7062 180.656 40.342C180.304 39.9778 179.88 39.6902 179.412 39.4974C178.944 39.3046 178.44 39.2107 177.934 39.2216C177.423 39.2185 176.917 39.3167 176.444 39.5104C175.971 39.7041 175.542 39.9895 175.18 40.3501C174.818 40.7108 174.531 41.1395 174.336 41.6115C174.141 42.0836 174.041 42.5897 174.042 43.1005ZM63.8527 15.41C64.5104 15.3628 65.1704 15.4622 65.7851 15.7009C66.3997 15.9397 66.9537 16.3119 67.4071 16.7907C67.8605 17.2694 68.202 17.8429 68.4069 18.4696C68.6118 19.0964 68.6751 19.7608 68.5921 20.4149C68.5921 23.6327 66.8529 25.4825 63.8527 25.4825H60.2145V15.4099L63.8527 15.41ZM61.779 24.0579H63.678C64.148 24.086 64.6183 24.0089 65.0547 23.8323C65.4911 23.6557 65.8826 23.384 66.2008 23.037C66.519 22.69 66.7558 22.2764 66.894 21.8264C67.0321 21.3763 67.0682 20.9011 66.9996 20.4354C67.0633 19.9714 67.0235 19.4992 66.8832 19.0524C66.7429 18.6057 66.5055 18.1955 66.1881 17.8512C65.8706 17.507 65.481 17.2372 65.047 17.0612C64.6131 16.8853 64.1456 16.8075 63.678 16.8334H61.779V24.0579ZM70.3593 21.6785C70.3115 21.1789 70.3687 20.6749 70.5271 20.1988C70.6855 19.7226 70.9417 19.2848 71.2792 18.9135C71.6167 18.5421 72.0281 18.2454 72.487 18.0424C72.9459 17.8394 73.4421 17.7345 73.9439 17.7345C74.4457 17.7345 74.942 17.8394 75.4009 18.0424C75.8598 18.2454 76.2712 18.5421 76.6087 18.9135C76.9462 19.2848 77.2024 19.7226 77.3608 20.1988C77.5192 20.6749 77.5763 21.1789 77.5285 21.6785C77.5774 22.1786 77.521 22.6834 77.3631 23.1604C77.2052 23.6374 76.9492 24.0761 76.6116 24.4483C76.2739 24.8205 75.8622 25.1179 75.4028 25.3214C74.9433 25.525 74.4464 25.6301 73.9439 25.6301C73.4414 25.6301 72.9445 25.525 72.4851 25.3214C72.0257 25.1179 71.6139 24.8205 71.2763 24.4483C70.9387 24.0761 70.6827 23.6374 70.5248 23.1604C70.3669 22.6834 70.3105 22.1786 70.3593 21.6785ZM75.9856 21.6785C75.9856 20.0307 75.2454 19.0672 73.9465 19.0672C72.6424 19.0672 71.909 20.0307 71.909 21.6785C71.909 23.3393 72.6426 24.2954 73.9465 24.2954C75.2454 24.2954 75.9856 23.3327 75.9856 21.6785ZM87.0586 25.4823H85.5022L83.9313 19.8841H83.8126L82.2483 25.4823H80.707L78.6117 17.881H80.1332L81.4949 23.6812H81.607L83.1698 17.881H84.6089L86.1717 23.6812H86.2904L87.6454 17.881H89.1455L87.0586 25.4823ZM90.9077 17.8812H92.3518V19.0886H92.4639C92.6541 18.6549 92.9748 18.2913 93.3814 18.0486C93.7881 17.8058 94.2603 17.6959 94.7323 17.7343C95.1022 17.7065 95.4735 17.7623 95.8189 17.8975C96.1643 18.0327 96.4748 18.2439 96.7275 18.5154C96.9801 18.7869 97.1685 19.1118 97.2785 19.466C97.3886 19.8202 97.4176 20.1946 97.3633 20.5615V25.4821H95.8631V20.9382C95.8631 19.7168 95.3323 19.1092 94.2229 19.1092C93.9718 19.0976 93.7211 19.1403 93.4881 19.2346C93.255 19.3288 93.0451 19.4723 92.8727 19.6553C92.7003 19.8382 92.5695 20.0563 92.4893 20.2945C92.4091 20.5327 92.3813 20.7855 92.4079 21.0355V25.4823H90.9077V17.8812ZM99.7536 14.9137H101.254V25.4823H99.7536V14.9137ZM103.339 21.6785C103.291 21.1789 103.348 20.6748 103.507 20.1986C103.665 19.7224 103.921 19.2845 104.259 18.9131C104.597 18.5417 105.008 18.245 105.467 18.0419C105.926 17.8388 106.422 17.734 106.924 17.734C107.426 17.734 107.922 17.8388 108.381 18.0419C108.84 18.245 109.252 18.5417 109.589 18.9131C109.927 19.2845 110.183 19.7224 110.341 20.1986C110.5 20.6748 110.557 21.1789 110.509 21.6785C110.558 22.1785 110.501 22.6832 110.343 23.16C110.185 23.6369 109.929 24.0754 109.591 24.4475C109.254 24.8195 108.842 25.1168 108.383 25.3202C107.923 25.5236 107.427 25.6287 106.924 25.6287C106.422 25.6287 105.925 25.5236 105.466 25.3202C105.006 25.1168 104.594 24.8195 104.257 24.4475C103.919 24.0754 103.663 23.6369 103.505 23.16C103.347 22.6832 103.29 22.1785 103.339 21.6785ZM108.965 21.6785C108.965 20.0307 108.225 19.0672 106.926 19.0672C105.622 19.0672 104.889 20.0307 104.889 21.6785C104.889 23.3393 105.622 24.2954 106.926 24.2954C108.225 24.2954 108.965 23.3327 108.965 21.6785ZM112.088 23.3327C112.088 21.9644 113.107 21.1756 114.916 21.0635L116.974 20.9448V20.2887C116.974 19.4858 116.444 19.0326 115.418 19.0326C114.581 19.0326 114.001 19.34 113.834 19.8775H112.382C112.535 18.5718 113.763 17.7345 115.488 17.7345C117.393 17.7345 118.468 18.6832 118.468 20.2887V25.4823H117.024V24.4141H116.905C116.664 24.7973 116.326 25.1096 115.925 25.3193C115.524 25.529 115.074 25.6285 114.622 25.6076C114.303 25.6408 113.981 25.6067 113.675 25.5076C113.37 25.4085 113.089 25.2466 112.851 25.0323C112.612 24.818 112.421 24.556 112.289 24.2633C112.158 23.9705 112.09 23.6536 112.088 23.3327ZM116.974 22.6832V22.0476L115.118 22.1663C114.072 22.2364 113.597 22.5925 113.597 23.2625C113.597 23.9467 114.19 24.3449 115.006 24.3449C115.245 24.3691 115.487 24.345 115.716 24.2739C115.946 24.2029 116.159 24.0864 116.343 23.9313C116.526 23.7763 116.677 23.5859 116.785 23.3715C116.894 23.157 116.958 22.923 116.974 22.6832ZM120.44 21.6785C120.44 19.2765 121.674 17.7551 123.595 17.7551C124.07 17.7332 124.541 17.8469 124.954 18.0831C125.367 18.3192 125.704 18.668 125.926 19.0886H126.038V14.9136H127.538V25.4821H126.101V24.2811H125.982C125.743 24.6989 125.394 25.0433 124.973 25.2771C124.553 25.5109 124.076 25.6251 123.595 25.6074C121.661 25.6074 120.44 24.0858 120.44 21.6783V21.6785ZM121.989 21.6785C121.989 23.2905 122.749 24.2608 124.02 24.2608C125.284 24.2608 126.066 23.2767 126.066 21.6849C126.066 20.1008 125.276 19.1026 124.02 19.1026C122.757 19.1026 121.989 20.0794 121.989 21.6785ZM133.745 21.6785C133.697 21.1789 133.754 20.6749 133.912 20.1988C134.071 19.7226 134.327 19.2848 134.664 18.9135C135.002 18.5421 135.413 18.2454 135.872 18.0424C136.331 17.8394 136.827 17.7345 137.329 17.7345C137.831 17.7345 138.327 17.8394 138.786 18.0424C139.245 18.2454 139.656 18.5421 139.994 18.9135C140.331 19.2848 140.588 19.7226 140.746 20.1988C140.904 20.6749 140.962 21.1789 140.914 21.6785C140.963 22.1786 140.906 22.6834 140.748 23.1604C140.59 23.6374 140.334 24.0761 139.997 24.4483C139.659 24.8205 139.247 25.1179 138.788 25.3214C138.329 25.525 137.832 25.6301 137.329 25.6301C136.827 25.6301 136.33 25.525 135.87 25.3214C135.411 25.1179 134.999 24.8205 134.662 24.4483C134.324 24.0761 134.068 23.6374 133.91 23.1604C133.752 22.6834 133.696 22.1786 133.745 21.6785ZM139.371 21.6785C139.371 20.0307 138.631 19.0672 137.332 19.0672C136.028 19.0672 135.294 20.0307 135.294 21.6785C135.294 23.3393 136.028 24.2954 137.332 24.2954C138.631 24.2954 139.371 23.3327 139.371 21.6785ZM142.927 17.8812H144.371V19.0886H144.483C144.673 18.6549 144.994 18.2913 145.4 18.0486C145.807 17.8058 146.279 17.6959 146.751 17.7343C147.121 17.7065 147.492 17.7623 147.838 17.8975C148.183 18.0327 148.494 18.2439 148.746 18.5154C148.999 18.7869 149.187 19.1118 149.297 19.466C149.408 19.8202 149.436 20.1946 149.382 20.5615V25.4821H147.882V20.9382C147.882 19.7168 147.351 19.1092 146.242 19.1092C145.991 19.0976 145.74 19.1403 145.507 19.2346C145.274 19.3288 145.064 19.4723 144.892 19.6553C144.719 19.8382 144.588 20.0563 144.508 20.2945C144.428 20.5327 144.4 20.7855 144.427 21.0355V25.4823H142.927L142.927 17.8812ZM157.859 15.9887V17.9158H159.506V19.1793H157.859V23.0878C157.859 23.8841 158.187 24.2328 158.934 24.2328C159.125 24.2321 159.316 24.2205 159.505 24.198V25.4477C159.236 25.4959 158.963 25.5215 158.689 25.5243C157.021 25.5243 156.357 24.9374 156.357 23.472V19.1793H155.15V17.9156H156.357V15.9889L157.859 15.9887ZM161.555 14.9137H163.042V19.1026H163.16C163.36 18.6649 163.689 18.2992 164.104 18.0556C164.519 17.8119 164.999 17.702 165.478 17.7409C165.846 17.7209 166.214 17.7823 166.555 17.9208C166.897 18.0593 167.203 18.2715 167.453 18.5421C167.703 18.8128 167.891 19.1353 168.002 19.4867C168.113 19.8381 168.145 20.2096 168.096 20.5748V25.4823H166.594V20.9448C166.594 19.7306 166.029 19.1158 164.969 19.1158C164.711 19.0947 164.452 19.1301 164.209 19.2197C163.966 19.3093 163.746 19.4508 163.564 19.6343C163.381 19.8179 163.241 20.039 163.153 20.2823C163.066 20.5256 163.032 20.7852 163.055 21.0429V25.4823H161.555V14.9137ZM176.843 23.4298C176.639 24.1245 176.197 24.7255 175.595 25.1275C174.993 25.5296 174.269 25.7071 173.549 25.629C173.048 25.6422 172.551 25.5463 172.091 25.3479C171.631 25.1495 171.219 24.8534 170.885 24.4801C170.551 24.1068 170.302 23.6653 170.156 23.1862C170.01 22.7071 169.969 22.2019 170.038 21.7056C169.971 21.2078 170.012 20.7015 170.158 20.2209C170.304 19.7404 170.552 19.2968 170.884 18.9202C171.216 18.5436 171.626 18.2429 172.084 18.0383C172.543 17.8337 173.04 17.73 173.542 17.7343C175.657 17.7343 176.933 19.1793 176.933 21.5662V22.0897H171.566V22.1737C171.542 22.4527 171.578 22.7334 171.669 22.998C171.76 23.2626 171.906 23.5052 172.096 23.7103C172.287 23.9153 172.518 24.0782 172.776 24.1886C173.033 24.299 173.31 24.3544 173.59 24.3513C173.949 24.3944 174.313 24.3298 174.635 24.1657C174.957 24.0016 175.223 23.7455 175.399 23.4298H176.843ZM171.566 20.9803H175.405C175.424 20.7252 175.389 20.4689 175.303 20.228C175.217 19.9871 175.082 19.7668 174.906 19.5814C174.73 19.396 174.517 19.2494 174.28 19.1512C174.044 19.053 173.79 19.0053 173.534 19.0112C173.275 19.0079 173.017 19.0566 172.777 19.1544C172.537 19.2522 172.318 19.3972 172.135 19.5807C171.951 19.7642 171.807 19.9826 171.709 20.2229C171.611 20.4633 171.563 20.7208 171.566 20.9803Z" fill="white"/>
</svg>
