<svg width="216" height="64" viewBox="0 0 216 64" fill="none" xmlns="http://www.w3.org/2000/svg">
<path d="M207.415 63.9232H7.97751C3.58993 63.9232 0 60.3276 0 55.9329V7.99044C0 3.59568 3.58986 0 7.97751 0H207.415C211.803 0 215.393 3.59568 215.393 7.99044V55.9328C215.393 60.3276 211.803 63.9232 207.415 63.9232" fill="black"/>
<path d="M207.415 0H7.97751C3.58993 0 0 3.59568 0 7.99044V55.9328C0 60.3276 3.58986 63.9232 7.97751 63.9232H207.415C211.803 63.9232 215.393 60.3276 215.393 55.9329V7.99044C215.393 3.59568 211.803 0 207.415 0M207.415 1.27842C211.11 1.27842 214.116 4.28991 214.116 7.99044V55.9328C214.116 59.6341 211.11 62.6455 207.415 62.6455H7.97751C4.28301 62.6455 1.27641 59.634 1.27641 55.9329V7.99044C1.27641 4.28991 4.28294 1.2785 7.97751 1.2785H207.415" fill="#A6A6A6"/>
<path d="M75.6563 16.3692C75.6563 17.7081 75.2605 18.7743 74.4677 19.5697C73.5671 20.5154 72.3935 20.9887 70.9507 20.9887C69.5689 20.9887 68.3942 20.5092 67.4281 19.5491C66.4603 18.5896 65.9773 17.3998 65.9773 15.9802C65.9773 14.56 66.4603 13.371 67.4281 12.4107C68.3942 11.4513 69.5689 10.9712 70.9507 10.9712C71.6363 10.9712 72.2926 11.1055 72.9158 11.3733C73.539 11.6418 74.0389 11.9982 74.4129 12.4445L73.5714 13.2878C72.9377 12.5294 72.0651 12.1504 70.9507 12.1504C69.943 12.1504 69.0717 12.5051 68.3363 13.2148C67.6007 13.9253 67.2331 14.8466 67.2331 15.9802C67.2331 17.114 67.6007 18.0352 68.3363 18.7457C69.0717 19.4555 69.9429 19.8101 70.9507 19.8101C72.0196 19.8101 72.9109 19.4535 73.6244 18.7395C74.0876 18.2743 74.3554 17.6277 74.4271 16.7974H70.9506V15.6456H75.5895C75.6344 15.8961 75.6562 16.1364 75.6562 16.3692" fill="white"/>
<path d="M75.6564 16.3694H75.4968C75.4955 17.6777 75.114 18.6939 74.3548 19.4568L74.3532 19.4581L74.3524 19.4594C73.4805 20.3726 72.3597 20.827 70.9506 20.829C69.6058 20.827 68.4802 20.3676 67.5402 19.4362C66.6024 18.503 66.1386 17.3637 66.1368 15.9804C66.1386 14.5965 66.6024 13.4578 67.5402 12.5252C68.4802 11.5932 69.6058 11.1331 70.9506 11.1311C71.6157 11.1311 72.2489 11.2611 72.8528 11.5201C73.4573 11.7811 73.9349 12.1231 74.2907 12.5477L74.4128 12.4446L74.3001 12.3316L73.4586 13.1755L73.5714 13.2879L73.6943 13.1857C73.031 12.3897 72.1 11.9884 70.9507 11.9908C69.9056 11.9895 68.9863 12.3635 68.2258 13.1002C67.4581 13.8392 67.0723 14.8124 67.0736 15.9804C67.0723 17.1484 67.4581 18.1215 68.2258 18.8606C68.9863 19.5973 69.9056 19.9713 70.9506 19.97C72.055 19.9719 72.9962 19.5967 73.7372 18.8526C74.2321 18.3556 74.5126 17.6672 74.5861 16.8112L74.601 16.6377H71.1102V15.8056H75.5896V15.6458L75.4324 15.6738C75.4761 15.9162 75.4967 16.1464 75.4967 16.3694H75.8158C75.8158 16.1265 75.7933 15.8768 75.7466 15.6172L75.7229 15.486H70.7912V16.9573H74.4271V16.7975L74.2683 16.7838C74.1979 17.5879 73.9423 18.1934 73.5116 18.6267C72.8261 19.3108 71.9847 19.6485 70.9507 19.6504C69.9804 19.6491 69.1571 19.3145 68.4472 18.631C67.7442 17.9499 67.3945 17.0803 67.3927 15.9804C67.3945 14.8804 67.7442 14.0109 68.4472 13.3298C69.1571 12.6463 69.9803 12.3117 70.9507 12.3104C72.0296 12.313 72.8443 12.67 73.4494 13.391L73.5616 13.5246L74.5257 12.5577L74.6292 12.4541L74.535 12.3422C74.143 11.8741 73.6207 11.5026 72.9788 11.2268C72.3356 10.9501 71.6569 10.8115 70.9507 10.8115C69.5323 10.8103 68.3082 11.3097 67.3154 12.2979C66.3188 13.2843 65.8165 14.5241 65.8179 15.9804C65.8165 17.4361 66.3188 18.6766 67.316 19.6635C68.3082 20.6511 69.5323 21.1499 70.9507 21.1486C72.4278 21.1499 73.6532 20.6585 74.5831 19.6803L74.4676 19.5698L74.5805 19.6829C75.4069 18.8557 75.8169 17.7383 75.8159 16.3694H75.6563M83.0105 12.3641H78.6509V15.4043H82.5824V16.5565H78.6509V19.5967H83.0105V20.7746H77.4219V11.1861H83.0105V12.3641Z" fill="white"/>
<path d="M83.0103 12.3641V12.2043H78.4912V15.5641H82.4227V16.3963L78.4912 16.3967V19.7565H82.8507V20.6148H77.5813V11.346H82.8507V12.3641H83.0103V12.2043V12.3641H83.1698V11.0264H77.2622V20.9344H83.1698V19.4369H78.8103V16.7163H82.7418V15.2445H78.8103V12.5239H83.1698V12.3641H83.0103ZM88.1976 20.7747H86.9667V12.364H84.2929V11.1861H90.8713V12.364H88.1976V20.7746" fill="white"/>
<path d="M88.1975 20.7747V20.6148H87.1261V12.2043H84.4524V11.346H90.7117V12.2043H88.038V20.7746H88.1975V20.6148V20.7746H88.3571V12.5239H91.0308V11.0264H84.1333V12.5238H86.807V20.9344H88.3571V20.7746H88.1975M95.6309 20.7747V11.1861H96.8606V20.7746H95.6309" fill="white"/>
<path d="M95.6309 20.7747H95.7905V11.346H96.701V20.6148H95.6309V20.7746H95.7905H95.6309V20.9344H97.0201V11.0264H95.4714V20.9344H95.6309V20.7746M102.317 20.7747H101.086V12.364H98.4125V11.1861H104.991V12.364H102.317V20.7746" fill="white"/>
<path d="M102.317 20.7746V20.6147H101.246V12.2042H98.5723V11.3459H104.831V12.2042H102.158V20.7745H102.317V20.6147V20.7745H102.477V12.5238H105.15V11.0262H98.2532V12.5237H100.927V20.9342H102.477V20.7744H102.317M111.333 18.7327C112.042 19.4511 112.909 19.81 113.934 19.81C114.959 19.81 115.827 19.4511 116.534 18.7327C117.243 18.0142 117.599 17.0957 117.599 15.9802C117.599 14.8649 117.243 13.9464 116.534 13.2279C115.827 12.5094 114.959 12.1504 113.934 12.1504C112.909 12.1504 112.042 12.5094 111.333 13.2279C110.626 13.9464 110.271 14.8648 110.271 15.9802C110.271 17.0957 110.626 18.0142 111.333 18.7327ZM117.444 19.5353C116.503 20.5047 115.332 20.9887 113.934 20.9887C112.534 20.9887 111.364 20.5047 110.425 19.5353C109.483 18.567 109.015 17.3818 109.015 15.9802C109.015 14.5787 109.483 13.3932 110.425 12.4251C111.364 11.4556 112.534 10.9712 113.934 10.9712C115.325 10.9712 116.492 11.4581 117.438 12.4314C118.382 13.4046 118.854 14.5875 118.854 15.9802C118.854 17.3818 118.383 18.567 117.444 19.5353Z" fill="white"/>
<path d="M111.333 18.7328L111.22 18.8451C111.955 19.5924 112.871 19.9719 113.934 19.97C114.996 19.9719 115.914 19.5924 116.648 18.8451C117.387 18.0972 117.759 17.1296 117.758 15.9804C117.759 14.8312 117.387 13.8636 116.648 13.1156C115.914 12.3684 114.996 11.9889 113.934 11.9908C112.871 11.9889 111.955 12.3684 111.22 13.1156C110.482 13.8636 110.109 14.8312 110.111 15.9804C110.109 17.1295 110.482 18.0972 111.22 18.8451L111.333 18.7328L111.447 18.6204C110.77 17.9306 110.431 17.0628 110.43 15.9804C110.431 14.898 110.77 14.0303 111.447 13.3404C112.13 12.6507 112.945 12.3123 113.934 12.3104C114.922 12.3123 115.739 12.6507 116.421 13.3404C117.099 14.0303 117.437 14.898 117.438 15.9804C117.437 17.0627 117.099 17.9306 116.421 18.6204C115.739 19.3102 114.922 19.6485 113.934 19.6503C112.945 19.6485 112.13 19.3102 111.447 18.6204L111.333 18.7328ZM117.444 19.5355L117.33 19.4244C116.415 20.3633 115.296 20.8271 113.934 20.829C112.571 20.8271 111.452 20.3633 110.539 19.4244L110.535 19.4194L110.539 19.4244C109.626 18.4824 109.176 17.3463 109.174 15.9804C109.176 14.6145 109.626 13.4784 110.539 12.5364C111.452 11.5975 112.571 11.1331 113.934 11.1312C115.288 11.1331 116.404 11.5994 117.324 12.5432C118.24 13.4896 118.693 14.6239 118.695 15.9804C118.693 17.3463 118.241 18.4824 117.33 19.4244L117.444 19.5355L117.559 19.6465C118.526 18.6516 119.015 17.4174 119.014 15.9804C119.015 14.5516 118.524 13.3199 117.552 12.3205C116.58 11.3172 115.362 10.8098 113.934 10.8115C112.498 10.8098 111.277 11.3148 110.31 12.3143V12.3135C109.341 13.3092 108.854 14.5434 108.855 15.9804C108.854 17.4174 109.341 18.6516 110.31 19.6472L110.315 19.6517L110.31 19.6465C111.277 20.646 112.498 21.1499 113.934 21.1486C115.369 21.1499 116.591 20.646 117.559 19.6465L117.444 19.5355ZM120.581 20.7747V11.1861H122.078L126.73 18.6453H126.783L126.73 16.7974V11.1861H127.961V20.7746H126.677L121.81 12.9539H121.757L121.81 14.8024V20.7746H120.581" fill="white"/>
<path d="M120.581 20.7747H120.74V11.346H121.989L126.642 18.8052H126.947L126.89 16.7952V11.346H127.802V20.6148H126.766L121.898 12.7942H121.593L121.65 14.805V20.6148H120.581V20.7746H120.74H120.581V20.9344H121.969V14.7999L121.916 12.9497L121.757 12.954V13.1138H121.81V12.954L121.674 13.039L126.589 20.9344H128.121V11.0264H126.571V16.7994L126.624 18.6497L126.783 18.6453V18.4855H126.73V18.6453L126.865 18.5605L122.166 11.0264H120.421V20.9344H120.581V20.7746M170.617 47.942H173.594V27.9641H170.616L170.617 47.942ZM197.432 35.1607L194.019 43.8221H193.917L190.375 35.1606H187.168L192.48 47.2666L189.451 54.0004H192.558L200.743 35.1606L197.432 35.1607ZM180.548 45.673C179.572 45.673 178.213 45.1847 178.213 43.9763C178.213 42.4343 179.907 41.8432 181.369 41.8432C182.679 41.8432 183.293 42.1258 184.089 42.5118C183.858 44.362 182.267 45.673 180.548 45.673ZM180.907 34.7236C178.752 34.7236 176.52 35.6748 175.596 37.7824L178.238 38.8873C178.803 37.7824 179.854 37.4222 180.959 37.4222C182.498 37.4222 184.063 38.348 184.089 39.9929V40.1983C183.55 39.8898 182.396 39.4273 180.984 39.4273C178.136 39.4273 175.235 40.9947 175.235 43.925C175.235 46.5981 177.571 48.3203 180.188 48.3203C182.19 48.3203 183.293 47.4208 183.987 46.3671H184.089V47.909H186.962V40.2494C186.962 36.7031 184.32 34.7236 180.907 34.7236ZM162.508 37.5925H158.274V30.7446H162.508C164.734 30.7446 165.998 32.5905 165.998 34.1685C165.998 35.7167 164.734 37.5925 162.508 37.5925ZM162.432 27.9641H155.298V47.942H158.274V40.373H162.432C165.731 40.373 168.975 37.9802 168.975 34.1685C168.975 30.3569 165.731 27.9641 162.432 27.9641ZM123.532 45.6766C121.475 45.6766 119.753 43.9518 119.753 41.5828C119.753 39.1889 121.475 37.4378 123.532 37.4378C125.562 37.4378 127.156 39.1888 127.156 41.5828C127.156 43.9518 125.562 45.6766 123.532 45.6766H123.532ZM126.95 36.2793H126.847C126.179 35.4813 124.893 34.7605 123.274 34.7605C119.881 34.7605 116.771 37.7468 116.771 41.5828C116.771 45.3933 119.881 48.3541 123.274 48.3541C124.893 48.3541 126.179 47.633 126.847 46.8096H126.95V47.7878C126.95 50.3886 125.562 51.7787 123.326 51.7787C121.501 51.7787 120.37 50.4653 119.907 49.3584L117.311 50.4397C118.057 52.2418 120.036 54.4562 123.326 54.4562C126.822 54.4562 129.778 52.3961 129.778 47.3759V35.1724H126.95V36.2793ZM131.834 47.942H134.816V27.9634H131.834V47.942ZM139.211 41.3513C139.134 38.725 141.242 37.3866 142.758 37.3866C143.941 37.3866 144.943 37.9784 145.277 38.8287L139.211 41.3513ZM148.465 39.0858C147.9 37.5663 146.177 34.7605 142.655 34.7605C139.159 34.7605 136.255 37.5152 136.255 41.5572C136.255 45.3677 139.134 48.3541 142.989 48.3541C146.1 48.3541 147.9 46.4488 148.645 45.3419L146.331 43.7969C145.561 44.93 144.506 45.6766 142.989 45.6766C141.473 45.6766 140.394 44.9813 139.699 43.6172L148.772 39.858L148.465 39.0858ZM76.1753 36.846V39.7294H83.0638C82.8582 41.3512 82.3184 42.5354 81.4957 43.3594C80.4936 44.3638 78.9256 45.4707 76.1752 45.4707C71.9339 45.4707 68.6183 42.0466 68.6183 37.7985C68.6183 33.5506 71.9339 30.126 76.1753 30.126C78.4631 30.126 80.1334 31.0273 81.3673 32.1859L83.3979 30.1522C81.6759 28.5041 79.388 27.2426 76.1753 27.2426C70.3659 27.2426 65.4822 31.98 65.4822 37.7985C65.4822 43.6172 70.3659 48.3541 76.1753 48.3541C79.3114 48.3541 81.6759 47.3247 83.5264 45.3933C85.4285 43.488 86.02 40.8106 86.02 38.6482C86.02 37.9784 85.9688 37.361 85.8654 36.846H76.1753ZM93.8516 45.6766C91.7949 45.6766 90.0212 43.9773 90.0212 41.5572C90.0212 39.1113 91.7949 37.4378 93.8516 37.4378C95.9076 37.4378 97.6813 39.1113 97.6813 41.5572C97.6813 43.9774 95.9076 45.6766 93.8516 45.6766ZM93.8516 34.7605C90.0984 34.7605 87.0395 37.6181 87.0395 41.5572C87.0395 45.4707 90.0984 48.3541 93.8516 48.3541C97.6041 48.3541 100.663 45.4707 100.663 41.5572C100.663 37.6181 97.6041 34.7605 93.8516 34.7605ZM108.711 45.6766C106.655 45.6766 104.881 43.9773 104.881 41.5572C104.881 39.1113 106.655 37.4378 108.711 37.4378C110.767 37.4378 112.541 39.1113 112.541 41.5572C112.541 43.9774 110.767 45.6766 108.711 45.6766H108.711ZM108.711 34.7605C104.958 34.7605 101.9 37.6181 101.9 41.5572C101.9 45.4707 104.958 48.3541 108.711 48.3541C112.464 48.3541 115.522 45.4707 115.522 41.5572C115.522 37.6181 112.464 34.7605 108.711 34.7605H108.711Z" fill="white"/>
<path d="M16.7664 12.1638C16.231 12.6476 15.9114 13.4547 15.9114 14.526V14.2838V49.6351V49.4023C15.9114 50.3916 16.1855 51.1557 16.6498 51.6477L16.7683 51.7613V51.7618C17.1441 52.1015 17.6259 52.2818 18.1781 52.2813C18.7177 52.2813 19.3248 52.109 19.9656 51.7451L43.1246 38.5653L51.0795 34.0376C52.0899 33.4627 52.657 32.7211 52.7518 31.9657V31.9626C52.657 31.2054 52.0899 30.4644 51.0796 29.8894L43.1239 25.3623L19.9656 12.1825C19.3235 11.818 18.716 11.645 18.175 11.645C17.6234 11.645 17.1422 11.8248 16.7666 12.1638H16.7664Z" fill="#00C1FF"/>
<path d="M16.7684 51.7607L16.6498 51.6471C16.1855 51.1551 15.9114 50.391 15.9114 49.4017V49.6345V14.292V14.5254C15.9114 13.4541 16.231 12.6471 16.7664 12.1632L36.5344 31.9626L16.7684 51.7607Z" fill="url(#paint0_linear_914_2596)"/>
<path d="M43.1246 38.5645L36.5344 31.9625L43.1241 25.3616L51.0797 29.8886C52.0899 30.4636 52.6571 31.2046 52.7519 31.9618V31.9648C52.6571 32.7203 52.0899 33.462 51.0797 34.0367L43.1247 38.5644" fill="url(#paint1_linear_914_2596)"/>
<path d="M18.1783 52.2808C17.6261 52.2813 17.1443 52.1008 16.7686 51.7613V51.7608L36.5346 31.9626L43.1248 38.5646L19.9657 51.7445C19.325 52.1085 18.7179 52.2808 18.1783 52.2808Z" fill="url(#paint2_linear_914_2596)"/>
<path d="M36.5344 31.9629L16.7664 12.1635C17.1421 11.8245 17.6233 11.6447 18.1749 11.6447C18.7159 11.6447 19.3235 11.8176 19.9655 12.1821L43.124 25.362L36.5343 31.9629" fill="url(#paint3_linear_914_2596)"/>
<path d="M18.1788 52.5146C17.6266 52.5146 17.1441 52.3342 16.7683 51.9947L16.7677 51.9952C16.7661 51.9937 16.7645 51.9922 16.7627 51.9909L16.66 51.8904C16.6567 51.8872 16.6537 51.8836 16.6499 51.8799L16.7684 51.7612C17.1442 52.1007 17.626 52.2812 18.1783 52.2805C18.7178 52.2805 19.3249 52.1083 19.9656 51.7444L43.1246 38.5645L43.273 38.7132L43.1228 38.7987L19.9655 51.9778C19.3816 52.3093 18.8262 52.4822 18.3246 52.511C18.276 52.5134 18.2274 52.5146 18.1788 52.5146" fill="url(#paint4_linear_914_2596)"/>
<path d="M16.6498 51.8804C16.1855 51.3884 15.9114 50.6249 15.9114 49.6349V49.4021C15.9114 50.3914 16.1855 51.1555 16.6498 51.6475L16.7683 51.7611L16.6498 51.8804Z" fill="url(#paint5_linear_914_2596)"/>
<path d="M43.2731 38.7133L43.1248 38.5646L51.0797 34.037C52.09 33.4622 52.6572 32.7205 52.752 31.9651C52.752 32.2423 52.6902 32.5195 52.5676 32.7892C52.3201 33.3329 51.8241 33.8467 51.0798 34.2705L43.2731 38.7134" fill="url(#paint6_linear_914_2596)"/>
<path d="M52.7519 31.9624C52.6571 31.2052 52.0899 30.4642 51.0797 29.8892L43.124 25.3621L43.2724 25.2135H43.2731L51.0797 29.6564C52.1935 30.2906 52.7513 31.1264 52.7519 31.9624Z" fill="url(#paint7_linear_914_2596)"/>
<path d="M15.9114 14.5259V14.2817C15.9114 14.1936 15.9137 14.1075 15.9183 14.0239V14.0201C15.9183 14.019 15.9183 14.0177 15.9187 14.0164V14.007C15.9668 13.1549 16.231 12.4902 16.6498 12.0463L16.7664 12.1636C16.231 12.6475 15.9114 13.4546 15.9114 14.5259Z" fill="url(#paint8_linear_914_2596)"/>
<path d="M43.124 25.3618L19.9656 12.1818C19.3236 11.8173 18.7161 11.6445 18.175 11.6445C17.6234 11.6445 17.1422 11.8242 16.7665 12.1632L16.6499 12.0459C16.6863 12.0073 16.7242 11.97 16.7634 11.9342C16.7646 11.9329 16.7665 11.9316 16.7678 11.9304C17.1405 11.594 17.6166 11.4142 18.1633 11.411H18.175C18.7161 11.411 19.3236 11.5839 19.9656 11.9486L43.273 25.2126L43.2724 25.2131L43.124 25.3618Z" fill="url(#paint9_linear_914_2596)"/>
<defs>
<linearGradient id="paint0_linear_914_2596" x1="28.5443" y1="13.9184" x2="11.5087" y2="30.9814" gradientUnits="userSpaceOnUse">
<stop stop-color="#00A0FF"/>
<stop offset="0.00657" stop-color="#00A1FF"/>
<stop offset="0.2601" stop-color="#00BEFF"/>
<stop offset="0.5122" stop-color="#00D2FF"/>
<stop offset="0.7604" stop-color="#00DFFF"/>
<stop offset="1" stop-color="#00E3FF"/>
</linearGradient>
<linearGradient id="paint1_linear_914_2596" x1="53.9828" y1="31.8484" x2="15.3765" y2="31.8484" gradientUnits="userSpaceOnUse">
<stop stop-color="#FFE000"/>
<stop offset="0.4087" stop-color="#FFBD00"/>
<stop offset="0.7754" stop-color="#FFA500"/>
<stop offset="1" stop-color="#FF9C00"/>
</linearGradient>
<linearGradient id="paint2_linear_914_2596" x1="39.626" y1="38.2396" x2="10.7579" y2="66.9429" gradientUnits="userSpaceOnUse">
<stop stop-color="#FF3A44"/>
<stop offset="1" stop-color="#C31162"/>
</linearGradient>
<linearGradient id="paint3_linear_914_2596" x1="11.6716" y1="9.22811" x2="24.5374" y2="22.0402" gradientUnits="userSpaceOnUse">
<stop stop-color="#32A071"/>
<stop offset="0.0685" stop-color="#2DA771"/>
<stop offset="0.4762" stop-color="#15CF74"/>
<stop offset="0.8009" stop-color="#06E775"/>
<stop offset="1" stop-color="#00F076"/>
</linearGradient>
<linearGradient id="paint4_linear_914_2596" x1="39.6115" y1="42.8189" x2="16.4925" y2="65.9753" gradientUnits="userSpaceOnUse">
<stop stop-color="#CC2E36"/>
<stop offset="1" stop-color="#9C0E4E"/>
</linearGradient>
<linearGradient id="paint5_linear_914_2596" x1="18.5448" y1="13.9188" x2="3.53668" y2="28.9513" gradientUnits="userSpaceOnUse">
<stop stop-color="#008DE0"/>
<stop offset="0.00657" stop-color="#008DE0"/>
<stop offset="0.2601" stop-color="#00A7E0"/>
<stop offset="0.5122" stop-color="#00B8E0"/>
<stop offset="0.7604" stop-color="#00C4E0"/>
<stop offset="1" stop-color="#00C7E0"/>
</linearGradient>
<linearGradient id="paint6_linear_914_2596" x1="53.983" y1="31.9636" x2="15.3765" y2="31.9636" gradientUnits="userSpaceOnUse">
<stop stop-color="#E0C500"/>
<stop offset="0.4087" stop-color="#E0A600"/>
<stop offset="0.7754" stop-color="#E09100"/>
<stop offset="1" stop-color="#E08900"/>
</linearGradient>
<linearGradient id="paint7_linear_914_2596" x1="53.9829" y1="31.964" x2="15.3766" y2="31.964" gradientUnits="userSpaceOnUse">
<stop stop-color="#FFE840"/>
<stop offset="0.4087" stop-color="#FFCE40"/>
<stop offset="0.7754" stop-color="#FFBC40"/>
<stop offset="1" stop-color="#FFB540"/>
</linearGradient>
<linearGradient id="paint8_linear_914_2596" x1="18.5285" y1="13.9461" x2="4.07305" y2="27.7976" gradientUnits="userSpaceOnUse">
<stop stop-color="#40B8FF"/>
<stop offset="0.00657" stop-color="#40B9FF"/>
<stop offset="0.2601" stop-color="#40CEFF"/>
<stop offset="0.5122" stop-color="#40DDFF"/>
<stop offset="0.7604" stop-color="#40E7FF"/>
<stop offset="1" stop-color="#40EAFF"/>
</linearGradient>
<linearGradient id="paint9_linear_914_2596" x1="11.6429" y1="13.4151" x2="21.9665" y2="23.7555" gradientUnits="userSpaceOnUse">
<stop stop-color="#65B895"/>
<stop offset="0.0685" stop-color="#62BD95"/>
<stop offset="0.4762" stop-color="#50DB97"/>
<stop offset="0.8009" stop-color="#44ED98"/>
<stop offset="1" stop-color="#40F498"/>
</linearGradient>
</defs>
</svg>
