<svg width="85" height="80" viewBox="0 0 85 80" fill="none" xmlns="http://www.w3.org/2000/svg">
<path d="M15.2434 14.0687C11.1791 18.2158 8.03566 23.2823 6.14771 28.9306C6.48251 28.8931 6.82662 28.8649 7.17073 28.8649C7.44044 28.8649 7.70085 28.8837 7.96126 28.9025C9.6818 24.0048 12.4068 19.5856 15.8665 15.8795C15.6061 15.3072 15.3922 14.6973 15.2434 14.0687Z" fill="white"/>
<path d="M53.0862 4.04785C53.6907 4.73278 54.1929 5.50215 54.5835 6.32781C66.0507 10.3623 74.9418 19.97 78.0388 31.9328C78.6991 32.0735 79.3408 32.2987 79.9453 32.5708C76.8018 18.8535 66.4135 7.90408 53.0862 4.04785Z" fill="white"/>
<path d="M77.3877 52.7624C72.5795 67.5587 58.7779 78.2829 42.5211 78.2829C26.1154 78.2829 12.1929 67.3617 7.51488 52.3402H5.73853C10.4724 68.3187 25.1668 79.9999 42.5211 79.9999C59.9032 79.9999 74.6069 68.2811 79.3129 52.2651C78.7084 52.4997 78.0573 52.6686 77.3877 52.7624Z" fill="white"/>
<path d="M14.2293 57.8006L13.6898 56.8811L14.1828 56.5902C14.6757 57.4253 15.0942 58.129 15.5871 58.9734L15.0942 59.2736L14.5548 58.3541L12.1739 59.7709L11.8484 59.2267L14.2293 57.8006Z" fill="white"/>
<path d="M16.0519 59.6394L14.9917 60.4087C15.3358 60.4181 15.5497 60.587 15.7078 60.8028C16.0984 61.347 15.9031 61.863 15.3358 62.2665L14.3314 62.9983L13.9966 62.5198L15.001 61.7973C15.3451 61.544 15.3637 61.2532 15.187 60.9998C14.9824 60.7183 14.6104 60.6902 14.3221 60.906L13.3456 61.6097L13.0107 61.1312L15.7264 59.1702L16.0519 59.6394Z" fill="white"/>
<path d="M15.801 63.2703C15.6057 63.4861 15.6057 63.8239 15.8754 64.1335C16.0149 64.3024 16.2567 64.4619 16.452 64.4713L16.4148 64.9967C16.0614 64.9779 15.6987 64.7434 15.4662 64.4713C14.9361 63.852 15.0105 63.1483 15.5871 62.6604C16.1358 62.1913 16.8426 62.2288 17.3355 62.8199C17.8471 63.4204 17.7913 64.1241 17.0007 64.6871L15.801 63.2703ZM16.9914 63.9365C17.196 63.7113 17.1588 63.4204 16.9449 63.1671C16.7403 62.9232 16.4613 62.8293 16.173 62.9607L16.9914 63.9365Z" fill="white"/>
<path d="M19.8838 67.2681C19.4188 67.7654 18.7027 67.8498 18.154 67.3244C17.5959 66.799 17.6424 66.0765 18.1075 65.5792C18.5725 65.082 19.2886 64.9975 19.8373 65.5229C20.3767 66.0296 20.3395 66.7708 19.8838 67.2681ZM18.526 65.9733C18.2842 66.236 18.2098 66.6301 18.5167 66.9209C18.8236 67.2118 19.2142 67.118 19.456 66.8553C19.6978 66.5926 19.7536 66.1703 19.4653 65.8982C19.1584 65.6168 18.7678 65.72 18.526 65.9733Z" fill="white"/>
<path d="M20.8603 69.5949L21.6229 68.6285C21.8462 68.347 21.8648 68.0093 21.5671 67.7747C21.2881 67.5495 20.9068 67.634 20.6836 67.9154L19.9396 68.8631L19.4839 68.4971L20.9533 66.6394L21.3625 66.9678L21.1951 67.2399C21.5299 67.2024 21.7904 67.2587 22.0229 67.4463C22.46 67.7935 22.5437 68.4033 22.088 68.985L21.316 69.9608L20.8603 69.5949Z" fill="white"/>
<path d="M24.2178 67.9056L22.302 70.6547L21.8276 70.317L23.7528 67.5679L24.2178 67.9056Z" fill="white"/>
<path d="M26.1056 70.2986L23.1295 72.3909L22.5901 72.0532L23.5015 71.4151L23.9293 68.9288L24.5059 69.2853L24.2734 70.3455L24.1153 71.0305L24.664 70.6082L25.5755 69.9515L26.1056 70.2986Z" fill="white"/>
<path d="M28.8678 71.7056L29.37 71.9495L28.3656 74.0887L27.8727 73.8542L27.9936 73.5258C27.7518 73.7228 27.3611 73.6853 27.1286 73.5727C26.4962 73.2724 26.2172 72.6626 26.5706 71.912C26.9147 71.1708 27.5843 71.0206 28.2075 71.3209C28.4958 71.4616 28.7004 71.7243 28.719 71.9964L28.8678 71.7056ZM27.0914 72.1653C26.8961 72.5781 27.0635 72.9534 27.4169 73.1223C28.2447 73.5164 28.8585 72.2216 28.0308 71.8275C27.6774 71.6493 27.2867 71.7525 27.0914 72.1653Z" fill="white"/>
<path d="M29.1377 74.4076L29.7887 72.7093L29.3795 72.5498L29.5655 72.0713L29.9747 72.2308L30.0305 72.0807C30.263 71.4896 30.7559 71.3676 31.2024 71.5459C31.3977 71.621 31.5651 71.7617 31.7046 71.9493L31.3512 72.2777C31.2675 72.1558 31.1745 72.0713 31.0628 72.0338C30.8768 71.9587 30.6815 72.0338 30.5792 72.2965L30.5234 72.4466L31.1652 72.7L30.9791 73.1785L30.3374 72.9251L29.6864 74.6234L29.1377 74.4076Z" fill="white"/>
<path d="M31.0535 75.1304L31.6115 73.3946L31.193 73.2539L31.3511 72.766L31.7696 72.9067L31.8161 72.7566C32.0114 72.1561 32.5043 72.006 32.9507 72.1561C33.146 72.2218 33.332 72.3532 33.4715 72.5314L33.1367 72.8786C33.0437 72.766 32.9507 72.6816 32.8391 72.644C32.6531 72.5784 32.4578 72.6628 32.3741 72.9349L32.3276 73.085L32.9879 73.3008L32.8298 73.7887L32.1695 73.5729L31.6115 75.3087L31.0535 75.1304Z" fill="white"/>
<path d="M35.1922 75.0831C35.0248 75.7493 34.4389 76.1715 33.7042 75.9745C32.9601 75.7868 32.6532 75.1394 32.8206 74.4733C32.988 73.8165 33.574 73.3943 34.2994 73.5725C35.0248 73.7602 35.3503 74.4264 35.1922 75.0831ZM33.3787 74.614C33.295 74.9612 33.4159 75.3458 33.8251 75.449C34.2343 75.5523 34.5226 75.2802 34.6156 74.933C34.6993 74.5859 34.5505 74.1918 34.1692 74.098C33.76 73.9948 33.4717 74.2762 33.3787 74.614Z" fill="white"/>
<path d="M36.3825 74.0982L36.3732 74.3797C36.6057 74.1264 36.8475 74.1264 37.08 74.1639C37.3218 74.2108 37.5357 74.3422 37.638 74.4923L37.2939 74.952C37.1916 74.8301 37.0986 74.7644 36.9033 74.7269C36.6057 74.6706 36.2988 74.7831 36.2244 75.2147L36.0105 76.4439L35.4338 76.3406L35.843 74.0044L36.3825 74.0982Z" fill="white"/>
<path d="M40.3909 73.629L40.0561 76.9786L39.5166 76.9223L39.5073 76.5939C39.3027 76.8566 38.9958 76.9223 38.7168 76.8941C38.0286 76.8191 37.5543 76.3124 37.638 75.5336C37.7217 74.7174 38.2704 74.3514 38.9493 74.4171C39.2004 74.4453 39.5631 74.6142 39.684 74.8769L39.8142 73.5727L40.3909 73.629ZM38.2146 75.5899C38.1774 76.0028 38.4378 76.3124 38.8098 76.3499C39.1725 76.3875 39.5166 76.1529 39.5538 75.7213C39.591 75.3085 39.312 74.9988 38.94 74.9613C38.5773 74.9332 38.2611 75.1677 38.2146 75.5899Z" fill="white"/>
<path d="M42.6416 74.6702L43.1996 74.6796L43.1624 77.0534L42.6137 77.044L42.595 76.6969C42.4555 76.9689 42.0835 77.1003 41.8231 77.1003C41.1256 77.0909 40.6234 76.6499 40.6327 75.8243C40.642 75.008 41.1907 74.5858 41.8789 74.6045C42.1951 74.6139 42.4927 74.764 42.6229 74.9986L42.6416 74.6702ZM41.2093 75.8337C41.2 76.284 41.5069 76.5561 41.8975 76.5655C42.809 76.5843 42.8369 75.1394 41.9254 75.13C41.5348 75.1206 41.2186 75.3833 41.2093 75.8337Z" fill="white"/>
<path d="M44.1201 73.6478L44.2131 74.9614C44.334 74.7081 44.706 74.5486 44.9571 74.5298C45.6453 74.4829 46.1847 74.8676 46.2405 75.6838C46.2963 76.4626 45.8127 76.9599 45.1152 77.0068C44.8269 77.0255 44.5293 76.9505 44.334 76.6784L44.3154 77.0068L43.776 77.0443L43.5435 73.6947L44.1201 73.6478ZM44.3061 75.8152C44.334 76.2468 44.6688 76.4907 45.0315 76.4626C45.4035 76.4344 45.6732 76.1342 45.6453 75.7214C45.6174 75.2898 45.3012 75.0552 44.9292 75.074C44.5758 75.1021 44.2782 75.4024 44.3061 75.8152Z" fill="white"/>
<path d="M47.0034 73.3665L47.4405 76.6973L46.8639 76.7723L46.4268 73.4415L47.0034 73.3665Z" fill="white"/>
<path d="M48.3704 75.5714C48.4634 75.8528 48.7517 76.0123 49.1516 75.9373C49.3655 75.8997 49.6259 75.759 49.7282 75.5995L50.1654 75.8904C49.9701 76.1906 49.598 76.3876 49.2446 76.4627C48.4448 76.6128 47.8775 76.2094 47.738 75.4681C47.6078 74.7551 47.9798 74.1546 48.7331 74.0138C49.505 73.8637 50.0817 74.2484 50.1747 75.2336L48.3704 75.5714ZM49.5329 74.8489C49.4399 74.558 49.1795 74.4454 48.8447 74.5111C48.5378 74.5674 48.3146 74.7738 48.2867 75.0928L49.5329 74.8489Z" fill="white"/>
<path d="M53.2996 72.8597L54.3505 74.3797L54.2947 72.5126L54.9085 72.3062L54.8899 74.8301L54.2482 75.0459L53.7925 74.4548L53.3461 73.7698L53.4019 74.5861L53.3833 75.3461L52.7416 75.5619L51.207 73.5634L51.8209 73.357L52.8997 74.877L52.816 73.0192L53.2996 72.8597Z" fill="white"/>
<path d="M57.0196 71.3117L57.5218 71.0771L58.517 73.2257L58.0241 73.4603L57.8567 73.16C57.8567 73.4696 57.5776 73.7511 57.3358 73.8637C56.7034 74.1639 56.0617 73.9951 55.7083 73.2351C55.3642 72.4939 55.6711 71.8746 56.3035 71.5931C56.5918 71.4618 56.9266 71.4618 57.1405 71.6213L57.0196 71.3117ZM56.2291 72.9817C56.4151 73.3946 56.815 73.5072 57.1591 73.3383C57.9869 72.9442 57.3916 71.64 56.5546 72.0341C56.2105 72.203 56.0431 72.5783 56.2291 72.9817Z" fill="white"/>
<path d="M59.9123 69.7261L60.3122 73.3666L59.7542 73.6856L59.6333 72.5691L57.6709 71.0115L58.2568 70.6738L59.0659 71.3868L59.5868 71.856L59.4752 71.1617L59.3356 70.0451L59.9123 69.7261Z" fill="white"/>
<path d="M61.2328 68.0087L61.6141 68.5623L62.1442 68.187L62.4325 68.5998L61.9024 68.9751L62.4883 69.8102C62.6186 69.9978 62.786 70.0166 62.9255 69.904C62.9999 69.8477 63.065 69.7633 63.1115 69.6788L63.53 69.9978C63.4277 70.148 63.3347 70.2512 63.1952 70.3638C62.786 70.6734 62.3488 70.6265 62.014 70.1479L61.4281 69.3129L61.0654 69.5662L60.7771 69.1534L61.1398 68.9001L60.7957 68.4028L61.2328 68.0087Z" fill="white"/>
<path d="M65.0367 67.3803C65.4645 67.9058 65.4552 68.6376 64.86 69.1161C64.2648 69.604 63.5673 69.4633 63.1395 68.9379C62.7116 68.4124 62.7302 67.6806 63.3069 67.2021C63.8928 66.7236 64.6182 66.8549 65.0367 67.3803ZM63.5952 68.5625C63.8184 68.844 64.1997 68.966 64.5252 68.6939C64.8507 68.4218 64.8135 68.0277 64.581 67.7463C64.3578 67.4742 63.9486 67.3616 63.6417 67.6055C63.3255 67.8776 63.372 68.2905 63.5952 68.5625Z" fill="white"/>
<path d="M68.1522 65.5692C68.1522 65.9539 68.022 66.2354 67.7708 66.4793C67.2872 66.9672 66.599 67.0798 66.0038 66.4793C65.4179 65.8882 65.5202 65.1845 66.0038 64.6966C66.2363 64.4621 66.4874 64.3401 66.8501 64.3401L66.8594 64.8749C66.6734 64.8843 66.506 64.9593 66.3944 65.0813C66.1154 65.3628 66.1154 65.7662 66.413 66.0571C66.7292 66.3761 67.1105 66.3292 67.3709 66.0665C67.5011 65.9351 67.5941 65.7662 67.5941 65.5598L68.1522 65.5692Z" fill="white"/>
<path d="M68.0871 62.5106L68.4498 62.079L70.2355 63.6177L69.8821 64.0399L69.6031 63.8335C69.724 64.115 69.5938 64.4903 69.4263 64.6873C68.9799 65.2221 68.3196 65.3347 67.6872 64.7999C67.0734 64.2651 67.1013 63.5802 67.5477 63.0548C67.7523 62.8108 68.0592 62.6795 68.3289 62.7264L68.0871 62.5106ZM68.0592 64.3589C68.4033 64.6498 68.8032 64.5935 69.0543 64.2933C69.6496 63.5896 68.5707 62.6513 67.9755 63.355C67.7151 63.6553 67.7151 64.0681 68.0592 64.3589Z" fill="white"/>
<path d="M68.6267 60.719L69.1661 61.1224L69.5567 60.597L69.9566 60.8972L69.566 61.4226L70.3844 62.0325C70.5611 62.1639 70.7285 62.1357 70.8308 61.9856C70.8866 61.9105 70.9239 61.8073 70.9425 61.7135L71.4354 61.8824C71.3889 62.0607 71.3331 62.1826 71.2308 62.3328C70.9425 62.755 70.5053 62.8488 70.0403 62.5016L69.2219 61.8918L68.9615 62.2483L68.5616 61.9481L68.822 61.5915L68.3384 61.2256L68.6267 60.719Z" fill="white"/>
<path d="M71.2212 60.5874C71.4909 60.7094 71.7979 60.6156 72.0211 60.2684C72.1327 60.0901 72.2164 59.7993 72.1792 59.6116L72.6907 59.499C72.7744 59.8462 72.6628 60.259 72.4675 60.5687C72.0304 61.2536 71.3514 61.3943 70.719 60.9815C70.1145 60.5968 69.9471 59.9025 70.3563 59.2551C70.7841 58.5889 71.4537 58.4294 72.2257 59.0393L71.2212 60.5874ZM71.5095 59.2363C71.2305 59.105 70.9701 59.227 70.7934 59.5084C70.626 59.7805 70.6167 60.0808 70.8213 60.3153L71.5095 59.2363Z" fill="white"/>
<path d="M71.5095 57.4255L71.7699 57.5194C71.6025 57.2191 71.6769 56.9846 71.7885 56.7688C71.9001 56.553 72.0954 56.3935 72.2721 56.3372L72.5883 56.8157C72.4395 56.872 72.3465 56.947 72.2535 57.1159C72.1047 57.388 72.114 57.7164 72.4953 57.9228L73.5834 58.5139L73.3044 59.0299L71.2397 57.904L71.5095 57.4255Z" fill="white"/>
<path d="M70.5892 50.9611C66.5901 62.7174 55.5228 71.1992 42.5304 71.1992C30.0494 71.1992 19.3448 63.3742 14.9737 52.3403H13.7554C18.1823 64.0216 29.4077 72.3439 42.5304 72.3439C55.9227 72.3439 67.3249 63.6744 71.5658 51.6085C71.2217 51.4208 70.8961 51.1956 70.5892 50.9611Z" fill="white"/>
<path d="M19.8841 20.233C17.4846 22.8601 15.5222 25.9095 14.1272 29.2497H15.3734C16.7499 26.0877 18.6564 23.2167 20.9722 20.7491C20.6002 20.5896 20.2282 20.4207 19.8841 20.233Z" fill="white"/>
<path d="M55.0669 12.9148C54.9553 13.2807 54.8251 13.6373 54.6763 13.9844C62.628 17.6061 68.7383 24.643 71.1098 33.2562C71.4353 33.0404 71.7794 32.8527 72.1328 32.6744C69.6032 23.8455 63.279 16.6303 55.0669 12.9148Z" fill="white"/>
<path d="M22.581 58.1292L21.5487 56.8063L20.907 56.9658L20.5071 56.4497L23.8924 55.5865L24.3016 56.1026L22.6833 59.227L22.2741 58.7109L22.581 58.1292ZM23.5669 56.2715L22.1346 56.6468L22.8693 57.585L23.5669 56.2715Z" fill="white"/>
<path d="M23.0371 59.5641L24.274 58.3538L23.9857 58.0535L24.3391 57.7157L24.6275 58.016L24.7391 57.9128C25.1669 57.4906 25.6505 57.5938 25.9667 57.9128C26.1062 58.0535 26.1992 58.2505 26.2457 58.4663L25.8086 58.6071C25.7807 58.4663 25.7342 58.3631 25.6598 58.2787C25.5296 58.138 25.3343 58.1286 25.139 58.3162L25.0274 58.4194L25.4831 58.8979L25.1297 59.2357L24.674 58.7572L23.4184 59.9582L23.0371 59.5641Z" fill="white"/>
<path d="M24.4417 60.9718L25.5856 59.6676L25.2694 59.3862L25.5949 59.0202L25.9111 59.3017L26.0134 59.1891C26.4133 58.7388 26.8969 58.7951 27.2317 59.1047C27.3805 59.236 27.4921 59.4237 27.5479 59.6301L27.1201 59.8084C27.0829 59.6676 27.0271 59.5644 26.9434 59.4894C26.8039 59.358 26.6086 59.358 26.4226 59.5644L26.3203 59.677L26.8132 60.118L26.4877 60.4839L25.9948 60.0429L24.8509 61.3471L24.4417 60.9718Z" fill="white"/>
<path d="M28.1056 62.5104C27.715 63.0358 27.0547 63.1859 26.4687 62.745C25.8828 62.304 25.8549 61.6191 26.2362 61.0936C26.6175 60.5776 27.2965 60.4181 27.8638 60.8497C28.4404 61.2907 28.4962 61.9944 28.1056 62.5104ZM26.6826 61.4314C26.478 61.7035 26.4501 62.0882 26.7756 62.3321C27.1012 62.5761 27.4546 62.4447 27.6592 62.1726C27.8638 61.9005 27.8731 61.4971 27.5755 61.2719C27.25 61.028 26.8872 61.1593 26.6826 61.4314Z" fill="white"/>
<path d="M29.5286 62.0697L29.4263 62.3136C29.7146 62.1635 29.9378 62.2574 30.1331 62.3699C30.3284 62.4919 30.4772 62.689 30.5144 62.8578L30.0494 63.1393C30.0029 62.9986 29.9378 62.8954 29.789 62.8015C29.5379 62.6514 29.231 62.642 29.0171 62.9986L28.394 64.0119L27.9197 63.721L29.0915 61.7976L29.5286 62.0697Z" fill="white"/>
<path d="M33.2486 63.0176L31.8535 65.8981L31.3885 65.6729L31.4908 65.3726C31.2211 65.5415 30.9328 65.4946 30.6817 65.382C30.0865 65.0912 29.8354 64.4719 30.1609 63.8058C30.4957 63.1021 31.1095 62.9613 31.7047 63.2428C31.9186 63.346 32.1883 63.6275 32.2069 63.8996L32.7557 62.7737L33.2486 63.0176ZM30.6631 64.0497C30.4957 64.4062 30.6259 64.7722 30.9421 64.9317C31.2583 65.0912 31.6396 64.988 31.8163 64.622C31.9837 64.2655 31.8349 63.8996 31.5187 63.7401C31.2025 63.5806 30.8398 63.6838 30.6631 64.0497Z" fill="white"/>
<path d="M34.9322 64.6502L35.4344 64.8284L34.6904 66.9583L34.1975 66.78L34.2812 66.461C34.0766 66.6674 33.7045 66.6768 33.4627 66.5924C32.8303 66.3766 32.5048 65.823 32.7745 65.0724C33.0349 64.3405 33.6487 64.1247 34.2719 64.3499C34.5509 64.4531 34.7741 64.6783 34.8206 64.941L34.9322 64.6502ZM33.2953 65.26C33.1558 65.6635 33.3511 66.0106 33.6952 66.1326C34.523 66.4235 34.9694 65.1287 34.151 64.8378C33.7976 64.7158 33.4348 64.8472 33.2953 65.26Z" fill="white"/>
<path d="M36.569 64.1522L36.29 65.372C36.4667 65.1749 36.8573 65.128 37.0898 65.1843C37.7315 65.3344 38.1128 65.8411 37.9361 66.6011C37.7687 67.3235 37.1921 67.6426 36.5504 67.4924C36.2807 67.4268 36.0389 67.2766 35.9273 66.9764L35.825 67.2766L35.3228 67.1547L36.0389 64.0303L36.569 64.1522ZM36.1412 66.1789C36.0482 66.5729 36.29 66.8919 36.6248 66.9764C36.9689 67.0608 37.3037 66.8544 37.3967 66.4697C37.4897 66.0757 37.2665 65.766 36.9224 65.6816C36.5783 65.6065 36.2249 65.7942 36.1412 66.1789Z" fill="white"/>
<path d="M39.2569 64.6783L38.7919 67.8495L38.2432 67.7651L38.7082 64.5938L39.2569 64.6783Z" fill="white"/>
<path d="M39.9543 67.0705C39.9729 67.352 40.1961 67.5678 40.5868 67.596C40.7914 67.6147 41.0611 67.549 41.2006 67.4271L41.5261 67.8024C41.275 68.0275 40.8751 68.1214 40.5403 68.0932C39.7683 68.0369 39.3498 67.5209 39.3963 66.7984C39.4428 66.1135 39.945 65.6538 40.6705 65.7007C41.4145 65.757 41.8516 66.2542 41.7028 67.1831L39.9543 67.0705ZM41.2099 66.6952C41.1913 66.395 40.9774 66.2355 40.6612 66.2167C40.3636 66.1979 40.1031 66.3199 40.0008 66.6108L41.2099 66.6952Z" fill="white"/>
<path d="M46.0923 67.5207C45.7947 67.8678 45.3762 68.0555 44.9205 68.093C43.7393 68.1869 43.1813 67.4081 43.1162 66.5731C43.0511 65.738 43.5254 64.8467 44.6694 64.7528C45.0972 64.7153 45.525 64.856 45.8691 65.1563L45.4971 65.5785C45.2739 65.3909 44.9856 65.3158 44.7066 65.3346C43.9439 65.3908 43.6556 66.0007 43.7021 66.5355C43.7486 67.0703 44.0927 67.5957 44.874 67.5395C45.153 67.5207 45.4506 67.38 45.6459 67.1548L46.0923 67.5207Z" fill="white"/>
<path d="M47.8596 65.269L48.3804 65.1658L48.8175 67.3895L48.306 67.4927L48.213 67.1737C48.1386 67.4552 47.8224 67.6522 47.5806 67.7085C46.9296 67.8399 46.3716 67.5396 46.2135 66.7609C46.0647 65.9915 46.4925 65.4942 47.1342 65.3722C47.4318 65.316 47.7387 65.4004 47.9061 65.588L47.8596 65.269ZM46.7622 66.6483C46.8459 67.0705 47.1807 67.2675 47.5434 67.1925C48.399 67.0236 48.1386 65.6725 47.2737 65.8508C46.9203 65.9164 46.6785 66.2167 46.7622 66.6483Z" fill="white"/>
<path d="M49.2916 64.2281L49.4684 64.8473L50.0636 64.6691L50.1938 65.1288L49.5986 65.3071L49.8683 66.2453C49.9241 66.4518 50.0729 66.5174 50.2403 66.4705C50.324 66.4424 50.4077 66.3955 50.4821 66.3298L50.7611 66.7426C50.6309 66.8458 50.51 66.9115 50.3426 66.9678C49.8776 67.1273 49.4963 66.949 49.3382 66.4048L49.0684 65.4666L48.6685 65.5886L48.5383 65.1288L48.9382 65.0068L48.7708 64.4439L49.2916 64.2281Z" fill="white"/>
<path d="M51.3654 65.6164C51.5049 65.8603 51.8025 65.9635 52.1653 65.8134C52.3513 65.7384 52.5745 65.5695 52.6489 65.3912L53.1046 65.5882C52.9744 65.9072 52.6582 66.1606 52.342 66.2919C51.6258 66.5828 51.0213 66.3013 50.7516 65.6258C50.5005 64.9878 50.7516 64.3497 51.4305 64.0777C52.128 63.7962 52.7326 64.0589 52.993 64.9596L51.3654 65.6164ZM52.3327 64.7344C52.1932 64.4717 51.9234 64.4248 51.6258 64.5374C51.3468 64.65 51.1701 64.8752 51.2073 65.1848L52.3327 64.7344Z" fill="white"/>
<path d="M53.3278 63.3173L53.4859 63.5331C53.5138 63.2047 53.6998 63.064 53.9044 62.9608C54.109 62.8576 54.3508 62.8294 54.5182 62.8857V63.4299C54.3694 63.3924 54.2578 63.4018 54.0997 63.4862C53.8393 63.6176 53.6719 63.8803 53.8579 64.2556L54.3973 65.3158L53.9044 65.5691L52.8813 63.5519L53.3278 63.3173Z" fill="white"/>
<path d="M54.8069 61.7698C55.0301 62.1451 54.4628 62.4829 54.2396 62.1076C54.0163 61.7323 54.5837 61.3945 54.8069 61.7698ZM54.6023 62.6236L55.7462 64.5752L56.2205 64.2937L55.0766 62.3421L54.6023 62.6236Z" fill="white"/>
<path d="M58.1454 63.0172L57.4758 62.0414C57.2805 61.7599 56.9829 61.6567 56.6853 61.8537C56.4063 62.0508 56.3784 62.4261 56.5737 62.7075L57.234 63.6552L56.7783 63.9742L55.4949 62.1164L55.9041 61.8256L56.1087 62.0601C56.1645 61.7411 56.2854 61.516 56.5179 61.3564C56.955 61.0468 57.5223 61.1313 57.9315 61.7224L58.6105 62.6982L58.1454 63.0172Z" fill="white"/>
<path d="M58.8523 59.2269L59.3638 59.1893L59.3824 59.6022C59.6428 59.6397 59.8381 59.7617 59.9962 59.9493C60.1822 60.1651 60.3589 60.531 60.1915 60.897C60.5914 60.7937 60.8425 60.9345 61.0285 61.1597C61.4377 61.6288 61.3261 62.2387 60.8332 62.6703C60.3403 63.1019 59.7172 63.1206 59.3173 62.6609L59.7358 62.295C59.9311 62.5201 60.2566 62.4826 60.4984 62.2762C60.7402 62.0698 60.8146 61.7695 60.61 61.535C60.4054 61.3004 60.0985 61.3848 59.8846 61.5631C59.3545 62.0229 58.7407 61.9853 58.2849 61.4505C57.8292 60.9157 57.9222 60.2496 58.3965 59.8273C58.5268 59.7148 58.6849 59.6115 58.8709 59.5834L58.8523 59.2269ZM58.7035 61.0846C58.9639 61.3849 59.308 61.3849 59.5591 61.1691C59.8009 60.9626 59.8474 60.6061 59.587 60.3059C59.3359 60.015 58.9732 59.9962 58.7314 60.212C58.4895 60.4278 58.443 60.7844 58.7035 61.0846Z" fill="white"/>
<path d="M15.2431 34.1378C13.7458 34.1378 11.4672 33.7344 8.39813 32.9181L6.45438 37.1403C6.92869 37.0183 7.43091 36.962 7.96102 36.962C8.56554 36.962 9.16076 37.0183 9.72807 37.1215C10.2954 37.2341 10.8813 37.4405 11.4858 37.7595C12.081 38.0785 12.6019 38.4726 13.0297 38.9323C13.4575 39.4014 13.8202 40.0207 14.1085 40.8088C14.3968 41.597 14.5363 42.4789 14.5363 43.4735C14.5363 44.4868 14.3317 45.4626 13.9318 46.4008C13.5319 47.3391 12.9646 48.1741 12.2391 48.8966C11.5137 49.619 10.6023 50.2008 9.51417 50.6511C8.42604 51.1015 7.2356 51.3173 5.96147 51.3173C4.84544 51.3173 3.86891 51.1578 3.05979 50.8294C2.24136 50.501 1.62755 50.0788 1.21833 49.5534C0.809123 49.0279 0.502214 48.4931 0.306909 47.9489C0.102303 47.4141 0 46.8606 0 46.307C0 45.153 0.418512 44.1396 1.25554 43.2577C2.09256 42.3757 2.92028 41.9347 3.748 41.9347C4.29672 41.9347 4.65013 42.2256 4.80823 42.7979C4.82683 42.8542 4.80823 42.9105 4.75243 42.9481C4.51993 43.1263 4.27812 43.3327 4.02701 43.5579C3.78521 43.7831 3.5155 44.1959 3.21789 44.7964C2.92028 45.3875 2.77148 46.0255 2.77148 46.7011C2.77148 47.6112 3.02258 48.3993 3.5248 49.0467C4.02701 49.7035 4.76173 50.0319 5.71966 50.0319C6.74269 50.0319 7.67271 49.6472 8.50974 48.8684C9.34676 48.0991 9.97918 47.1139 10.407 45.9411C10.8348 44.7589 11.058 43.5298 11.058 42.235C11.058 40.9871 10.779 40.0113 10.221 39.317C9.66297 38.6227 8.82595 38.2755 7.72852 38.2755C6.56598 38.2755 5.68246 38.6508 5.07794 39.4014C5.02214 39.5234 4.95704 39.636 4.90124 39.758L3.86891 39.0731L8.02612 30.094L8.05402 30.0658C8.09123 29.9626 8.15633 29.9345 8.23073 29.972C10.7511 30.807 13.0948 31.2199 15.2803 31.2199C16.601 31.2199 17.3078 30.8915 17.4008 30.2347C17.4194 30.1127 17.4938 30.0658 17.6054 30.0846C17.9774 30.1878 18.1634 30.5068 18.1634 31.0697C18.1634 31.8673 17.8844 32.571 17.3357 33.1996C16.787 33.8282 16.0894 34.1378 15.2431 34.1378Z" fill="white"/>
<path d="M27.3613 38.2756C25.3338 37.8815 23.7435 37.2529 22.5809 36.3897C21.4184 35.5265 20.8418 34.6352 20.8418 33.7251C20.8418 33.1715 21.0929 32.6648 21.5951 32.2239C22.0973 31.7735 22.5437 31.5577 22.9344 31.5577C23.0739 31.5577 23.139 31.6609 23.139 31.8579C23.139 32.7868 23.5575 33.7438 24.4038 34.729C25.2501 35.7142 26.5057 36.4085 28.1797 36.8307C29.5747 34.6539 31.286 32.8619 33.3227 31.4639C35.3595 30.0659 37.3684 29.3622 39.3493 29.3622C39.9166 29.3622 40.4746 29.456 41.0141 29.6343C41.5535 29.8125 42.0371 30.1409 42.4556 30.6288C42.8741 31.1167 43.088 31.7078 43.088 32.4021C43.088 33.1527 42.7997 33.9033 42.2324 34.6446C41.6651 35.3858 40.8839 36.0613 39.9073 36.6524C38.9215 37.2435 37.7032 37.7314 36.2337 38.1067C34.7736 38.482 33.2111 38.6697 31.5557 38.6697C31.3232 38.6697 31.0442 38.6603 30.728 38.6415C29.6491 40.762 29.1097 42.8637 29.1097 44.9466C29.1097 46.87 29.5282 48.3618 30.3653 49.4127C31.2023 50.4635 32.216 50.989 33.4157 50.989C34.8945 50.989 36.3546 50.4729 37.8241 49.4408C39.2842 48.4088 40.642 46.9451 41.879 45.0404C41.9162 44.9841 41.972 44.9841 42.0278 45.0404L42.6788 45.7253C42.7346 45.7816 42.7439 45.8473 42.7067 45.9036C41.2094 48.4181 39.6283 50.3228 37.9636 51.6176C36.2895 52.903 34.4388 53.5504 32.3927 53.5504C30.2537 53.5504 28.5703 52.781 27.352 51.2329C26.1336 49.6848 25.5198 47.6112 25.5198 45.0123C25.5384 42.8168 26.1429 40.5743 27.3613 38.2756ZM39.5074 30.9009C38.4286 30.9009 37.1172 31.492 35.5827 32.6836C34.0482 33.8752 32.7089 35.3764 31.5743 37.206C32.7926 37.1872 33.9738 36.9996 35.1084 36.643C36.2523 36.2865 37.201 35.8455 37.9543 35.3201C38.7076 34.7947 39.3214 34.2223 39.7864 33.5937C40.2514 32.9651 40.4839 32.3834 40.4839 31.8204C40.4839 31.5671 40.4002 31.3419 40.2328 31.1636C40.0654 30.9854 39.8236 30.9009 39.5074 30.9009Z" fill="white"/>
<path d="M54.7507 45.8945C54.0439 47.0673 53.3929 48.0243 52.7883 48.7655C52.1931 49.5068 51.6351 50.0416 51.1329 50.3606C50.6307 50.6796 50.2029 50.8766 49.8495 50.9704C49.496 51.0643 49.0961 51.1018 48.6404 51.1018C48.0266 51.1018 47.5523 50.9048 47.1989 50.5201C46.8455 50.1354 46.6688 49.6006 46.6688 48.925C46.6688 48.409 46.7432 47.9211 46.892 47.452C47.0408 46.9829 47.3849 46.1478 47.9429 44.9375C48.9287 42.6387 49.0961 41.4378 48.4451 41.3346C48.0545 41.3346 47.5244 41.6067 46.8641 42.1415C46.2038 42.6763 45.562 43.4456 44.9296 44.459L41.9535 50.9141C41.8977 51.0361 41.8047 51.0924 41.6838 51.0924H39.3216C39.2658 51.0924 39.2193 51.0643 39.1914 51.0174C39.1635 50.9704 39.1542 50.9141 39.1728 50.8579L47.078 33.7816C47.1338 33.6409 47.2361 33.5752 47.3756 33.5752H49.7007C49.7565 33.5752 49.803 33.6033 49.8309 33.6503C49.8588 33.6972 49.8681 33.7535 49.8495 33.8098L46.4084 41.2783C46.799 40.9217 47.2082 40.6496 47.636 40.4714C48.0545 40.2931 48.3893 40.1899 48.6404 40.1617C48.8822 40.1336 49.1984 40.1148 49.5704 40.1148C50.2401 40.1148 50.7702 40.3119 51.1608 40.6966C51.5514 41.0812 51.7467 41.541 51.7467 42.0758C51.7467 42.6106 51.6258 43.1735 51.3933 43.774C50.5842 45.5004 50.0355 46.7201 49.7379 47.452C49.4402 48.1744 49.2914 48.6999 49.2914 49.0095C49.2914 49.366 49.4309 49.5443 49.7007 49.5443C50.0913 49.5443 50.7144 49.0939 51.57 48.2026C52.4256 47.3112 53.2254 46.251 53.9695 45.0219C54.0067 44.9656 54.0625 44.9656 54.1183 45.0219L54.7414 45.7068C54.7972 45.7725 54.7972 45.8288 54.7507 45.8945Z" fill="white"/>
<path d="M62.7117 41.8781C62.7117 42.7695 62.3118 43.5858 61.5026 44.3176C60.6935 45.0494 59.7914 45.5936 58.787 45.9502C57.7825 46.3067 56.8525 46.5037 55.9876 46.5413C55.9132 46.8978 55.8667 47.245 55.8667 47.5827C55.8667 48.1551 55.9876 48.6336 56.2201 48.9995C56.4526 49.3654 56.8153 49.5531 57.3082 49.5531C57.6616 49.5531 58.0522 49.4968 58.4708 49.3936C58.8893 49.281 59.4008 49.0839 59.9867 48.8025C60.5726 48.5116 61.1957 48.0519 61.856 47.4045C62.5164 46.7571 63.1302 45.9783 63.6975 45.0682C63.7347 44.9931 63.7905 44.9744 63.8463 45.0401L64.4322 45.725C64.4694 45.7813 64.4694 45.847 64.4322 45.9033C63.8184 46.8978 63.1953 47.7516 62.5629 48.4647C61.9212 49.1778 61.3538 49.7126 60.8516 50.0691C60.3494 50.4256 59.81 50.7071 59.2334 50.9135C58.6568 51.1199 58.1917 51.2419 57.8662 51.2888C57.5314 51.3264 57.1408 51.3451 56.6851 51.3451C55.5226 51.3451 54.6577 50.9604 54.0717 50.2005C53.4951 49.4405 53.1975 48.4741 53.1975 47.3013C53.1975 46.2129 53.5137 45.087 54.1368 43.9423C54.7693 42.7882 55.6156 41.8312 56.6851 41.0525C57.7546 40.2831 58.8521 39.889 59.9681 39.889C60.8144 39.889 61.4747 40.0485 61.9584 40.3769C62.4792 40.6959 62.7117 41.2026 62.7117 41.8781ZM60.2378 41.0149C59.6054 41.0149 58.8986 41.4653 58.1173 42.3566C57.3268 43.248 56.7223 44.2801 56.2852 45.4529C58.0894 44.9744 59.3915 44.0737 60.182 42.7413C60.6563 41.972 60.7586 41.4184 60.5075 41.1088C60.4424 41.0431 60.3587 41.0149 60.2378 41.0149Z" fill="white"/>
<path d="M67.5475 36.5773C67.6033 36.4553 67.7056 36.399 67.8452 36.399H70.2074C70.2632 36.399 70.3097 36.4271 70.3376 36.474C70.3655 36.521 70.3655 36.5679 70.319 36.6054C68.7287 40.0582 67.4266 42.9574 66.4036 45.2936C67.0732 45.8097 67.408 46.8418 67.408 48.3899C67.408 48.4649 67.408 48.5588 67.408 48.662C68.2358 48.54 69.2588 47.339 70.4771 45.0591C70.5143 44.984 70.5701 44.9653 70.6259 45.0309C70.7654 45.1904 70.97 45.4156 71.249 45.7159C71.2862 45.7722 71.2955 45.8378 71.2769 45.8941C70.0214 48.5306 68.6915 49.9286 67.2964 50.0881C67.1755 51.0358 66.9802 52.0022 66.6919 52.9779C66.4036 53.9537 66.0595 54.8638 65.641 55.727C65.2318 56.5902 64.7203 57.2939 64.125 57.8381C63.5298 58.3823 62.8881 58.6544 62.2278 58.6544C61.5954 58.6544 61.1304 58.3729 60.8142 57.8193C60.498 57.2658 60.3398 56.5808 60.3398 55.7646C60.3398 54.6105 60.5073 53.4471 60.8421 52.2649C61.1769 51.0827 61.7907 49.4501 62.6835 47.3578C63.567 45.2655 65.1946 41.672 67.5475 36.5773ZM63.0648 56.6278C63.5949 56.6278 64.1715 55.8678 64.7854 54.3384C65.4085 52.8091 65.7991 51.2985 65.9758 49.7879C65.5852 49.5064 65.2597 49.0936 64.9993 48.54C64.0972 50.698 63.4833 52.3118 63.1671 53.3626C62.8509 54.4135 62.6928 55.2485 62.6928 55.8584C62.6928 56.1117 62.73 56.3088 62.8137 56.4401C62.916 56.5621 62.9904 56.6278 63.0648 56.6278Z" fill="white"/>
<path d="M77.601 33.0684C77.6569 33.0684 77.7033 33.0965 77.7312 33.1622C77.7592 33.2185 77.7591 33.2842 77.7126 33.3405L74.4669 37.4125C74.4111 37.4688 74.346 37.4782 74.2902 37.4406L73.881 37.2624C73.7786 37.2248 73.7507 37.1498 73.7879 37.0559L75.5271 33.2466C75.5829 33.1247 75.6852 33.0684 75.8247 33.0684H77.601Z" fill="white"/>
<path d="M84.9763 45.8944C83.8603 47.799 82.8559 49.1314 81.9724 49.882C81.0888 50.6326 80.0937 51.0923 78.9963 51.2518C78.5406 51.3738 78.0105 51.4301 77.4059 51.4301C76.6619 51.4301 76.0109 51.2049 75.4622 50.7639C74.9135 50.3136 74.5229 49.7975 74.2997 49.2064C74.0765 48.6153 73.9648 48.0148 73.9648 47.4237C73.9648 46.8514 74.123 46.4949 74.4392 46.3541C75.2297 45.2845 76.4108 43.4268 78.0105 40.7903C78.4662 40.0397 79.1265 39.6644 80.0193 39.6644C80.4471 39.6644 80.8284 39.8051 81.1353 40.0772C81.4516 40.3587 81.6097 40.6308 81.6097 40.9122C81.2376 41.2688 80.9958 41.7942 80.9028 42.4697C80.8005 43.1547 80.8005 43.849 80.8842 44.5527C80.9772 45.2564 81.033 46.007 81.0609 46.7951C81.0888 47.5926 81.0609 48.2963 80.9865 48.9062C82.0096 48.1368 83.0791 46.842 84.2044 45.0406C84.2602 44.9843 84.3253 44.9843 84.3811 45.0406L84.967 45.7255C85.0042 45.7724 85.0136 45.8287 84.9763 45.8944ZM76.7828 49.3096C77.0804 49.3096 77.3222 49.244 77.5175 49.1126C77.7128 48.9812 77.8617 48.7936 77.964 48.5309C78.0663 48.2775 78.1314 47.9961 78.1872 47.7146C78.2337 47.4237 78.2523 47.0766 78.243 46.6731C78.2337 46.2697 78.2151 45.885 78.1965 45.5285C78.1779 45.1719 78.15 44.7591 78.1221 44.2806C78.0942 43.8021 78.0756 43.3986 78.0756 43.0608C76.9781 44.7497 76.076 46.0539 75.3878 46.9828C75.3134 47.602 75.3878 48.1368 75.6203 48.6059C75.8621 49.0751 76.2527 49.3096 76.7828 49.3096Z" fill="white"/>
<path d="M29.8536 2.55605C29.8536 2.55605 30.2257 3.83208 24.4967 4.58268C20.6278 5.1081 14.2385 7.73522 16.3125 14.866C17.2053 17.2679 20.851 21.8466 25.4639 19.6698C30.0768 17.4931 40.0374 14.6408 42.5671 19.3696C42.5671 20.5705 42.5671 22.8224 42.5671 22.8224C42.5671 22.8224 35.7221 20.7207 31.1929 22.4471C31.1929 22.4471 39.7491 21.6214 44.4271 27.1008V18.9192C44.4271 18.9192 51.9418 20.7207 54.025 12.9144C54.397 11.7885 55.2898 3.53183 45.4688 6.00883C45.1712 3.90714 44.5015 -0.146125 37.8054 0.00399581C34.541 0.154117 30.9697 3.60689 30.9697 3.60689C30.9697 3.60689 27.3984 7.13473 23.6039 7.13473C23.6039 7.13473 27.51 8.22311 31.0069 5.55847C34.5782 2.81876 41.2651 1.31755 43.0135 4.80786C43.6831 6.23401 43.8319 7.92287 42.5671 9.42408C42.5671 9.42408 47.9426 5.14563 51.0861 8.22311C53.5042 10.0246 52.909 14.6783 49.5237 16.5173C48.2589 17.4555 45.7292 18.2061 42.6415 16.142C43.0879 15.6916 44.6876 15.1287 44.2411 12.464C44.2411 12.464 43.4971 15.7291 38.661 15.5415C40.521 14.4156 41.1907 12.0137 40.0746 9.42408C40.0746 9.42408 39.9258 15.0536 35.3129 14.9785C35.3129 14.9785 36.4661 13.8151 35.4989 11.7134C35.4989 11.7134 33.8621 16.4798 29.5467 15.6916C25.6406 14.9035 24.1526 11.7509 24.1526 11.7509C24.1526 11.7509 23.5574 14.2279 26.2358 15.8793C26.7939 17.2679 23.0366 19.5948 21.0649 17.3429C19.0932 15.0911 16.2288 10.7376 19.5397 8.03546C22.6831 5.78365 28.6632 6.68437 29.8536 2.55605Z" fill="white"/>
<path d="M41.4977 26.1531C41.4977 26.1531 35.4711 25.6277 32.8298 23.8637C30.1885 22.0998 24.8316 21.5744 23.8644 25.0084C22.8971 27.1664 26.2824 29.8686 33.4622 28.555C33.4622 28.555 25.464 28.8928 26.9521 25.6933C27.6589 24.3141 31.3046 25.6933 31.3046 25.6933C31.3046 25.6933 37.5544 27.8044 41.4977 26.1531Z" fill="white"/>
<path d="M56.5081 33.5841L63.2414 30.9007L57.8938 34.5787C59.3539 34.7757 61.5581 34.8132 63.5019 33.7999C66.7569 32.1017 68.0404 28.0859 68.0404 28.0859C68.0404 28.0859 64.0506 26.8193 60.7955 28.5175C58.3495 29.8029 57.0196 32.3738 56.5081 33.5841Z" fill="white"/>
<path d="M55.3736 33.6779L53.2717 29.4089L54.2761 33.5466C53.4856 33.0024 52.3975 32.0454 51.8953 30.7037C51.0583 28.4518 52.1743 25.9373 52.1743 25.9373C52.1743 25.9373 54.6575 27.082 55.4945 29.3432C56.1176 31.032 55.6433 32.8616 55.3736 33.6779Z" fill="white"/>
<path d="M45.9059 56.7588C46.1756 56.4586 47.9613 54.3851 47.9613 54.3851L47.952 54.3757L47.9427 54.3663L46.0733 56.0645C46.0733 56.0645 46.0454 56.0927 46.0175 56.0645C45.9896 56.0364 46.0175 56.0082 46.0175 56.0082L47.6916 54.113L47.6823 54.1036L47.673 54.0942L45.7943 55.7924C45.7943 55.7924 45.7664 55.8206 45.7385 55.7924C45.7106 55.7643 45.7385 55.7361 45.7385 55.7361L47.4219 53.8502L47.4126 53.8409L47.4033 53.8315L45.5246 55.5203C45.5246 55.5203 45.4967 55.5485 45.4688 55.5203C45.4409 55.4922 45.4688 55.464 45.4688 55.464L47.1615 53.5782L47.1522 53.5688L47.1429 53.5594C47.1429 53.5594 45.0875 55.3608 44.7899 55.6329C44.762 55.6611 44.762 55.6892 44.7713 55.7174C44.8271 55.83 44.9201 56.1396 44.7341 56.5712C44.5574 57.0216 40.5769 60.5025 39.6933 61.2343C39.4794 61.422 39.2748 61.7785 39.3585 62.2289C39.805 62.3133 40.1677 62.1069 40.3444 61.8911C41.0791 61.0091 44.5202 56.984 44.9666 56.8058C45.3944 56.6181 45.7013 56.7119 45.8036 56.7682C45.8501 56.787 45.8873 56.787 45.9059 56.7588ZM39.7956 61.2718C39.9631 61.1311 40.0375 61.0936 40.0375 61.0936C40.0375 61.0936 39.7584 61.3281 39.6468 61.497C39.5538 61.6378 39.4701 61.8067 39.4329 62.1538C39.3957 61.7504 39.591 61.4407 39.7956 61.2718ZM45.8129 56.7119C45.7013 56.6556 45.413 56.5524 44.9852 56.7307C44.9852 56.7307 45.2642 56.5618 45.6734 56.6087C45.7292 56.6181 45.8594 56.6369 45.9338 56.5806C46.0082 56.5149 46.1291 56.3929 46.4174 56.1021C46.1756 56.3835 45.9803 56.6087 45.9059 56.6932C45.8687 56.7307 45.8408 56.7307 45.8129 56.7119Z" fill="white"/>
<path d="M47.4127 61.1032C46.9663 60.7279 45.19 59.1235 43.5996 57.5566C42.1209 55.8302 40.2608 54.1601 40.0004 53.8599C39.7214 53.5315 39.4238 53.7379 39.6005 54.329C39.8795 55.3142 41.6838 57.3971 43.116 57.9507C43.1439 57.9694 43.1625 57.9694 43.1904 57.9882C43.767 58.3541 46.0735 60.9155 46.771 61.76C46.9477 61.9758 47.3104 62.1822 47.7568 62.0977C47.8405 61.6474 47.6266 61.2815 47.4127 61.1032ZM39.7679 54.5729C39.7679 54.5729 39.7307 54.526 39.6842 54.3759C39.5633 54.01 39.6005 53.7942 39.7307 53.7473C39.6377 53.8317 39.6284 53.9818 39.6563 54.1413C39.6842 54.3571 39.7679 54.5729 39.7679 54.5729ZM43.3299 57.9507C43.2741 58.0069 43.209 57.96 43.1904 57.9413C43.1904 57.9413 43.2462 57.9413 43.2834 57.8944L43.5624 57.6129C43.5996 57.5754 43.6461 57.6316 43.6089 57.6598L43.3299 57.9507ZM47.6824 62.0039C47.6452 61.6568 47.5615 61.4879 47.4685 61.3471C47.3662 61.1783 47.0779 60.9437 47.0779 60.9437C47.0779 60.9437 47.143 60.9718 47.3197 61.122C47.515 61.2908 47.7196 61.6005 47.6824 62.0039Z" fill="white"/>
</svg>
