<svg width="37" height="37" viewBox="0 0 37 37" fill="none" xmlns="http://www.w3.org/2000/svg">
<path d="M30.0173 10.5942H35.344V19.257H34.2805V11.627H31.1718V35.6834H34.2805V19.6021H35.344V35.6947C35.7542 35.7271 36.0967 35.7524 36.4858 35.7835V36.767H0.508339V2.87787C0.657752 2.868 0.812803 2.8525 0.969263 2.84687C1.10881 2.84123 1.24835 2.84687 1.48939 2.84687V35.6947H4.66652V23.2247H9.93684V35.6792H13.1393V24.578H14.1838V35.6848H17.3328V17.4144H14.2078V23.8282H13.1788V16.397H18.404V35.6947H21.5826V20.932H26.8388V35.6764H30.0173V10.5942ZM22.6679 21.9381V35.6947H25.7746V21.9381H22.6679ZM8.86417 35.7144V24.2942H5.79839V35.7144H8.86417Z" fill="#046295"/>
<path d="M22.0097 11.9836C22.9865 10.8704 24.0888 10.566 25.4137 11.0958C25.5547 11.1522 25.8352 11.0789 25.9466 10.9634C27.4646 9.39643 28.963 7.81259 30.4529 6.24848C29.796 4.54204 30.0681 3.30343 31.2408 2.53687C32.3163 1.83373 33.6977 1.98309 34.5871 2.89761C35.4441 3.7783 35.5696 5.17473 34.8845 6.19916C34.1163 7.3504 32.8449 7.62941 31.2183 6.97558C30.0018 8.25223 28.7727 9.54157 27.545 10.8323C27.3674 11.0197 27.2095 11.2297 27.015 11.3974C26.6048 11.7511 26.4864 12.0667 26.7105 12.6557C27.0982 13.6703 26.8458 14.6524 26.0156 15.4105C25.2122 16.1433 24.2621 16.3039 23.267 15.9164C22.2352 15.5134 21.6573 14.7003 21.6178 13.5956C21.6009 13.1376 21.4416 12.8657 21.1076 12.605C20.1307 11.8384 19.1708 11.0507 18.1672 10.2419C17.5921 10.9634 16.9522 11.5425 15.9768 11.5961C15.0366 11.6468 14.2895 11.2889 13.6285 10.5519C12.1061 12.643 10.6092 14.6975 9.09816 16.7745C9.70426 17.4706 10.0355 18.2132 9.92838 19.1165C9.76206 20.5298 8.4709 21.5867 7.06558 21.4317C5.62502 21.2724 4.55235 19.9648 4.68907 18.5317C4.82439 17.1212 6.11695 16.0038 7.51241 16.1869C8.05086 16.2574 8.3074 16.0855 8.59636 15.6797C9.98477 13.7323 11.4126 11.8131 12.8011 9.86426C12.9885 9.60076 13.1069 9.2372 13.1267 8.9117C13.2141 7.53218 14.2458 6.42462 15.5624 6.3598C17.048 6.28511 18.1376 7.17285 18.3857 8.62706C18.4252 8.86238 18.5267 9.14561 18.6986 9.29075C19.7727 10.1968 20.875 11.069 22.0083 11.9836H22.0097ZM31.1253 4.721C31.121 5.58478 31.7948 6.28934 32.656 6.31893C33.5102 6.34852 34.2798 5.60029 34.2827 4.73368C34.2869 3.86426 33.537 3.11884 32.6729 3.13434C31.83 3.14984 31.1309 3.86708 31.1253 4.71959V4.721ZM14.212 9.00329C14.2261 9.85721 14.9351 10.5674 15.778 10.5716C16.6393 10.5759 17.3835 9.81494 17.368 8.94834C17.3525 8.11273 16.6238 7.38704 15.7921 7.37999C14.9238 7.37295 14.1965 8.11978 14.212 9.00329ZM22.6693 13.4335C22.6482 14.3199 23.3628 15.0653 24.2354 15.0681C25.067 15.0709 25.8028 14.3509 25.8239 13.5125C25.8465 12.6473 25.1107 11.8849 24.2466 11.8779C23.4079 11.8722 22.6891 12.5796 22.6679 13.4321L22.6693 13.4335ZM7.35595 20.3551C8.21859 20.341 8.90787 19.6491 8.91069 18.7952C8.9121 17.9117 8.18899 17.2043 7.29816 17.2156C6.44115 17.2269 5.75892 17.9216 5.75469 18.7853C5.75188 19.6956 6.43833 20.3678 7.35736 20.3537L7.35595 20.3551Z" fill="#15F8C3"/>
<path d="M0.484375 0.765625H1.47247V1.73509H0.484375V0.765625Z" fill="#192C44"/>
</svg>
