<svg width="21" height="26" viewBox="0 0 21 26" fill="none" xmlns="http://www.w3.org/2000/svg">
<path d="M0.566284 21.7684V19.8894H3.19679V10.3069C3.19679 8.55322 3.71349 6.99266 4.7469 5.62522C5.78032 4.25777 7.14254 3.3966 8.83358 3.04169V2.13354C8.83358 1.65337 9.00581 1.2567 9.35028 0.943549C9.69475 0.630393 10.1071 0.473816 10.5872 0.473816C11.0674 0.473816 11.4797 0.630393 11.8242 0.943549C12.1687 1.2567 12.3409 1.65337 12.3409 2.13354V3.04169C14.032 3.3966 15.3994 4.25777 16.4432 5.62522C17.4871 6.99266 18.009 8.55322 18.009 10.3069V19.8894H20.6082V21.7684H0.566284ZM10.5872 25.5262C9.91918 25.5262 9.33463 25.2809 8.83358 24.7903C8.33253 24.2997 8.08201 23.7099 8.08201 23.021H13.0925C13.0925 23.7099 12.8472 24.2997 12.3566 24.7903C11.866 25.2809 11.2762 25.5262 10.5872 25.5262ZM5.07572 19.8894H16.1301V10.3069C16.1301 8.76199 15.5977 7.44674 14.533 6.36113C13.4683 5.27553 12.1635 4.73273 10.6186 4.73273C9.07366 4.73273 7.76363 5.27553 6.68847 6.36113C5.6133 7.44674 5.07572 8.76199 5.07572 10.3069V19.8894Z" fill="white"/>
</svg>
