<svg width="19" height="22" viewBox="0 0 19 22" fill="none" xmlns="http://www.w3.org/2000/svg">
<path d="M1.74196 9.02004C1.77883 8.56061 1.9874 8.13193 2.32613 7.81936C2.66486 7.50679 3.10889 7.33328 3.56979 7.33337H14.623C15.0839 7.33328 15.5279 7.50679 15.8666 7.81936C16.2054 8.13193 16.4139 8.56061 16.4508 9.02004L17.1869 18.1867C17.2071 18.439 17.1749 18.6927 17.0923 18.9319C17.0097 19.1711 16.8784 19.3906 16.7068 19.5766C16.5352 19.7626 16.3269 19.911 16.0951 20.0126C15.8633 20.1142 15.613 20.1666 15.36 20.1667H2.83279C2.57972 20.1666 2.32941 20.1142 2.09761 20.0126C1.86581 19.911 1.65754 19.7626 1.48593 19.5766C1.31432 19.3906 1.18307 19.1711 1.10045 18.9319C1.01783 18.6927 0.985631 18.439 1.00588 18.1867L1.74196 9.02004V9.02004Z" stroke="white" stroke-width="2" stroke-linecap="round" stroke-linejoin="round"/>
<path d="M12.763 10.0834V5.50004C12.763 4.52758 12.3767 3.59495 11.6891 2.90732C11.0014 2.21968 10.0688 1.83337 9.09635 1.83337C8.12389 1.83337 7.19126 2.21968 6.50363 2.90732C5.816 3.59495 5.42969 4.52758 5.42969 5.50004V10.0834" stroke="white" stroke-width="2" stroke-linecap="round" stroke-linejoin="round"/>
</svg>
