<svg width="18" height="18" viewBox="0 0 18 18" fill="none" xmlns="http://www.w3.org/2000/svg">
<path d="M12.3075 13.3425L13.32 12.33L9.7425 8.73V4.2075H8.3925V9.27L12.3075 13.3425ZM9 18C7.77 18 6.6075 17.7638 5.5125 17.2912C4.4175 16.8187 3.46125 16.1737 2.64375 15.3562C1.82625 14.5387 1.18125 13.5825 0.70875 12.4875C0.23625 11.3925 0 10.23 0 9C0 7.77 0.23625 6.6075 0.70875 5.5125C1.18125 4.4175 1.82625 3.46125 2.64375 2.64375C3.46125 1.82625 4.4175 1.18125 5.5125 0.70875C6.6075 0.23625 7.77 0 9 0C10.23 0 11.3925 0.23625 12.4875 0.70875C13.5825 1.18125 14.5387 1.82625 15.3562 2.64375C16.1737 3.46125 16.8187 4.4175 17.2912 5.5125C17.7638 6.6075 18 7.77 18 9C18 10.23 17.7638 11.3925 17.2912 12.4875C16.8187 13.5825 16.1737 14.5387 15.3562 15.3562C14.5387 16.1737 13.5825 16.8187 12.4875 17.2912C11.3925 17.7638 10.23 18 9 18Z" fill="#00C04D"/>
</svg>
