<svg width="20" height="20" viewBox="0 0 20 20" fill="none" xmlns="http://www.w3.org/2000/svg">
<path d="M13.4333 14.7441L14.5384 13.639L10.6337 9.7097V4.77352H9.16018V10.2991L13.4333 14.7441ZM9.82325 19.8276C8.48074 19.8276 7.2119 19.5698 6.01674 19.0541C4.82158 18.5383 3.77786 17.8343 2.88558 16.9421C1.9933 16.0498 1.2893 15.0061 0.773581 13.8109C0.25786 12.6157 0 11.3469 0 10.0044C0 8.66189 0.25786 7.39305 0.773581 6.19789C1.2893 5.00273 1.9933 3.95901 2.88558 3.06673C3.77786 2.17445 4.82158 1.47045 6.01674 0.954733C7.2119 0.439012 8.48074 0.181152 9.82325 0.181152C11.1658 0.181152 12.4346 0.439012 13.6298 0.954733C14.8249 1.47045 15.8686 2.17445 16.7609 3.06673C17.6532 3.95901 18.3572 5.00273 18.8729 6.19789C19.3886 7.39305 19.6465 8.66189 19.6465 10.0044C19.6465 11.3469 19.3886 12.6157 18.8729 13.8109C18.3572 15.0061 17.6532 16.0498 16.7609 16.9421C15.8686 17.8343 14.8249 18.5383 13.6298 19.0541C12.4346 19.5698 11.1658 19.8276 9.82325 19.8276Z" fill="#00AEEF"/>
</svg>
