<svg width="77" height="48" viewBox="0 0 77 48" fill="none" xmlns="http://www.w3.org/2000/svg">
<path d="M52.5853 48H10.5796L12.0134 39.9119H58.0472L57.3338 44.0074C56.9328 46.3142 54.9276 48 52.5853 48Z" fill="#111719"/>
<path d="M13.8765 45.9983L13.9616 45.5121H14.824L14.7566 45.8847C14.7459 45.9593 14.7601 45.9841 14.8418 45.9841H15.6261C15.7042 45.9841 15.7326 45.9593 15.7468 45.8847L15.8106 45.5015C15.8319 45.395 15.8 45.3737 15.7006 45.3488L14.785 45.1075C14.3201 44.9869 14.0894 44.8662 14.1746 44.3693L14.281 43.7625C14.3698 43.2691 14.6395 43.0349 15.1186 43.0349H16.3501C16.8292 43.0349 17.0173 43.2656 16.9357 43.7625L16.8576 44.2061H15.9952L16.052 43.876C16.0662 43.7979 16.0484 43.7766 15.9739 43.7766H15.2535C15.186 43.7766 15.1541 43.7979 15.1434 43.876L15.0796 44.2167C15.0654 44.3232 15.0831 44.348 15.1896 44.3764L16.1123 44.6142C16.5772 44.7313 16.8079 44.8555 16.7227 45.3524L16.6056 46.0019C16.5204 46.4916 16.2472 46.7294 15.7681 46.7294H14.462C13.9758 46.7258 13.7842 46.4881 13.8765 45.9983Z" fill="#FEC201"/>
<path d="M17.8583 43.0385H19.8848C20.3639 43.0385 20.552 43.2691 20.4704 43.766L20.2858 44.8094C20.1971 45.3027 19.9274 45.5369 19.4447 45.5369H18.2948L18.0855 46.7258H17.2124L17.8583 43.0385ZM19.3205 44.781C19.3879 44.781 19.4163 44.7597 19.4305 44.6816L19.5725 43.8902C19.5831 43.8121 19.5618 43.7908 19.4944 43.7908H18.6001L18.4262 44.781H19.3205Z" fill="#FEC201"/>
<path d="M21.2051 43.0385H23.7L23.5687 43.7979H21.9468L21.8297 44.4651H23.1251L22.9973 45.214H21.702L21.5707 45.9664H23.189L23.0577 46.7258H20.5627L21.2051 43.0385Z" fill="#FEC201"/>
<path d="M23.7852 45.9983L24.1756 43.766C24.2643 43.2727 24.5376 43.0385 25.0167 43.0385H26.3227C26.8019 43.0385 26.9864 43.2691 26.9012 43.766L26.7841 44.4084H25.9111L26.0069 43.8973C26.0175 43.8192 25.9962 43.7979 25.9217 43.7979H25.1374C25.0699 43.7979 25.038 43.8192 25.0274 43.8973L24.6796 45.867C24.6654 45.9415 24.6831 45.9664 24.7576 45.9664H25.5384C25.6165 45.9664 25.6449 45.9415 25.6591 45.867L25.7478 45.3524H26.6209L26.5037 46.0018C26.4186 46.4916 26.1417 46.7294 25.6662 46.7294H24.3602C23.8881 46.7258 23.6965 46.4881 23.7852 45.9983Z" fill="#FEC201"/>
<path d="M27.7245 43.0385H28.5976L27.9481 46.7258H27.0786L27.7245 43.0385Z" fill="#FEC201"/>
<path d="M30.89 45.9451H29.7508L29.4136 46.7258H28.4802L30.2228 43.0385H31.4188L31.873 46.7258H30.9574L30.89 45.9451ZM30.8261 45.2033L30.7054 43.7589L30.0773 45.2033H30.8261Z" fill="#FEC201"/>
<path d="M33.0552 43.0385H33.9283L33.4172 45.9557H34.9007L34.7694 46.7258H32.4058L33.0552 43.0385Z" fill="#FEC201"/>
<path d="M36.7246 45.9983L37.115 43.766C37.2038 43.2727 37.4735 43.0385 37.9526 43.0385H39.3473C39.8335 43.0385 40.0216 43.2691 39.9329 43.766L39.5425 45.9983C39.4538 46.4881 39.1841 46.7258 38.7014 46.7258H37.3067C36.8276 46.7258 36.6359 46.4881 36.7246 45.9983ZM38.5808 45.9664C38.6482 45.9664 38.6766 45.9415 38.6908 45.867L39.0386 43.8973C39.0492 43.8192 39.035 43.7979 38.9605 43.7979H38.0804C38.0129 43.7979 37.981 43.8192 37.9703 43.8973L37.6225 45.867C37.6083 45.9415 37.6261 45.9664 37.7006 45.9664H38.5808Z" fill="#FEC201"/>
<path d="M40.8379 43.0385H43.3329L43.2016 43.7979H41.5797L41.4519 44.5148H42.7473L42.616 45.2637H41.3206L41.0615 46.7294H40.1885L40.8379 43.0385Z" fill="#FEC201"/>
<path d="M43.9576 43.0385H46.4525L46.3212 43.7979H44.6993L44.5715 44.5148H45.8669L45.7356 45.2637H44.4402L44.1812 46.7294H43.3081L43.9576 43.0385Z" fill="#FEC201"/>
<path d="M47.0734 43.0385H49.5683L49.437 43.7979H47.8151L47.698 44.4651H48.9934L48.8621 45.214H47.5667L47.4354 45.9664H49.0537L48.9224 46.7258H46.4275L47.0734 43.0385Z" fill="#FEC201"/>
<path d="M52.8903 43.766L52.727 44.6887C52.6525 45.1004 52.4538 45.3311 52.1095 45.395L52.4999 46.7258H51.6304L51.2471 45.4553H50.7325L50.5054 46.7258H49.6323L50.2818 43.0385H52.3083C52.7838 43.0385 52.9719 43.2691 52.8903 43.766ZM51.7475 44.7278C51.822 44.7278 51.8469 44.7065 51.8646 44.6284L51.9959 43.8796C52.0101 43.8015 51.9924 43.7802 51.9214 43.7802H51.0271L50.8603 44.7278H51.7475Z" fill="#FEC201"/>
<path d="M65.0776 7.34285L56.0455 7.34995H14.9341C10.4304 7.34995 6.58336 10.5902 5.80968 15.0228L0 48C1.2102 44.2167 4.74853 41.5692 8.81566 41.5692L11.1367 41.5621H58.9592C63.4629 41.5621 67.3099 38.3219 68.0836 33.8892L73.8933 0.915649C72.6831 4.69886 69.1448 7.34285 65.0776 7.34285Z" fill="#00AEEF"/>
<path d="M36.8632 0C35.0071 0 33.4171 1.33797 33.0977 3.16569L32.9274 4.13456L31.5752 11.811C32.104 10.1643 33.6407 9.01441 35.4116 9.01441L72.0123 9.00021C73.9713 9.00021 75.6464 7.59127 75.98 5.66062L76.9631 0H36.8632Z" fill="#1F1F1F"/>
<path d="M9.37646 31.9586L9.82363 29.3394H15.1294L14.8099 31.1601C14.7141 31.6072 14.8419 31.7669 15.2891 31.7669H19.5088C19.9879 31.7669 20.1476 31.6072 20.2434 31.1601L21.01 26.7167C21.1058 26.2376 20.8822 26.1099 20.0518 26.1099C18.2631 26.1099 17.3368 26.3973 15.864 27.132L10.7819 25.6946L12.858 13.9972H27.8453L27.0468 18.6002H17.3652L16.407 24.0337C17.461 22.82 18.9303 21.5423 21.8689 21.5423C25.8331 21.5423 26.9829 22.9477 26.44 25.9537L25.3859 31.8982C24.8748 34.8687 23.15 36.3735 20.2399 36.3735H12.8899C9.98333 36.37 8.83346 34.9326 9.37646 31.9586Z" fill="white"/>
<path d="M27.2385 31.9586L29.6021 18.4086C30.1451 15.4061 31.7741 13.9972 34.6843 13.9972H42.7688C45.6754 13.9972 46.8289 15.4026 46.3143 18.4086L43.9187 31.9586C43.4077 34.9291 41.7467 36.37 38.8366 36.37H30.7555C27.8454 36.37 26.6955 34.9326 27.2385 31.9586ZM38.0735 31.7669C38.5207 31.7669 38.6804 31.6072 38.7762 31.1601L40.8843 19.2071C40.9482 18.728 40.8204 18.6002 40.4052 18.6002H35.4508C35.0356 18.6002 34.844 18.728 34.7801 19.2071L32.672 31.1601C32.5762 31.6072 32.7039 31.7669 33.1511 31.7669H38.0735Z" fill="white"/>
<path d="M59.062 14.1498H61.997L52.83 29.0413H49.895L59.062 14.1498ZM50.5942 18.5328L51.1052 15.6404C51.2969 14.5544 51.744 14.1498 52.83 14.1498H54.7642C55.8289 14.1498 56.1483 14.5544 55.9567 15.6404L55.4456 18.5328C55.254 19.6188 54.8068 20.0233 53.7421 20.0233H51.8079C50.7432 20.0198 50.4025 19.5975 50.5942 18.5328ZM53.5079 18.5115C53.7421 18.5115 53.806 18.4476 53.8486 18.1921L54.2319 15.9811C54.2958 15.7255 54.2319 15.6616 53.9976 15.6616H53.082C52.8265 15.6616 52.7626 15.7255 52.6987 15.9811L52.3154 18.1921C52.2728 18.4476 52.3367 18.5115 52.5922 18.5115H53.5079ZM55.9354 27.5507L56.4464 24.6583C56.6381 23.5723 57.1065 23.1677 58.1712 23.1677H60.1054C61.1914 23.1677 61.4895 23.5723 61.2979 24.6583L60.7868 27.5507C60.6165 28.6367 60.148 29.0413 59.062 29.0413H57.1278C56.0844 29.0413 55.765 28.6154 55.9354 27.5507ZM58.8491 27.5294C59.0833 27.5294 59.1472 27.4656 59.1898 27.21L59.5944 24.999C59.637 24.7435 59.5944 24.6796 59.3601 24.6796H58.4232C58.189 24.6796 58.1038 24.7435 58.0612 24.999L57.6566 27.21C57.614 27.4656 57.6779 27.5294 57.9122 27.5294H58.8491Z" fill="white"/>
<path d="M47.8118 35.1597L48.4009 31.7882C48.5358 31.0393 48.9404 30.6915 49.6644 30.6915H51.7724C52.5035 30.6915 52.791 31.0429 52.6561 31.7882L52.067 35.1597C51.9321 35.8979 51.5276 36.2563 50.7965 36.2563H48.6884C47.9644 36.2563 47.6769 35.8979 47.8118 35.1597ZM50.6119 35.1136C50.7148 35.1136 50.7539 35.0745 50.7787 34.9609L51.304 31.9869C51.3182 31.8662 51.2969 31.8343 51.1833 31.8343H49.856C49.7531 31.8343 49.7034 31.8662 49.6892 31.9869L49.1639 34.9609C49.1391 35.071 49.171 35.1136 49.2846 35.1136H50.6119Z" fill="white"/>
<path d="M53.9016 30.6915H57.6707L57.4719 31.8378H55.0231L54.8315 32.9203H56.787L56.5882 34.0489H54.6327L54.2423 36.2599H52.9221L53.9016 30.6915Z" fill="white"/>
<path d="M58.4905 30.6915H62.2595L62.0608 31.8378H59.612L59.4203 32.9203H61.3758L61.1771 34.0489H59.2216L58.8312 36.2599H57.511L58.4905 30.6915Z" fill="white"/>
<path d="M36.959 1.86682H40.1531C40.8913 1.86682 41.1823 2.22172 41.0546 2.98475L40.4477 6.42016C40.3164 7.17254 39.8976 7.53809 39.1594 7.53809H35.9653L36.959 1.86682ZM38.9607 6.37402C39.0813 6.37402 39.1133 6.33499 39.1381 6.22142L39.674 3.19059C39.6918 3.06993 39.6669 3.03798 39.5533 3.03798H38.1018L37.5198 6.37757H38.9607V6.37402Z" fill="white"/>
<path d="M42.2434 1.86682H43.5884L42.5912 7.54164H41.2461L42.2434 1.86682Z" fill="white"/>
<path d="M43.7269 6.42371L43.8583 5.67843H45.1891L45.0827 6.25336C45.0649 6.36693 45.0898 6.40597 45.214 6.40597H46.4206C46.5413 6.40597 46.5839 6.36693 46.6087 6.25336L46.7045 5.66068C46.7365 5.49743 46.6868 5.46549 46.5342 5.42645L45.1252 5.0538C44.4119 4.86571 44.057 4.68116 44.1848 3.91813L44.348 2.98475C44.4864 2.22172 44.8981 1.86682 45.6363 1.86682H47.5315C48.2696 1.86682 48.5607 2.22172 48.4329 2.98475L48.3122 3.66615H46.9814L47.0701 3.1551C47.0949 3.03444 47.063 3.00249 46.9494 3.00249H45.8386C45.7321 3.00249 45.686 3.03444 45.6682 3.1551L45.5724 3.68035C45.5476 3.8436 45.5795 3.88264 45.7428 3.92523L47.1624 4.29077C47.8757 4.46822 48.2306 4.66342 48.1028 5.42645L47.9254 6.42371C47.7941 7.17609 47.3753 7.54164 46.6371 7.54164H44.6284C43.8796 7.54164 43.5885 7.17609 43.7269 6.42371Z" fill="white"/>
<path d="M48.7592 6.4237L49.359 2.98829C49.4974 2.22526 49.9197 1.87036 50.6544 1.87036H52.6631C53.4013 1.87036 53.6852 2.22526 53.5539 2.98829L53.3765 3.97846H52.0314L52.1769 3.19058C52.1946 3.06992 52.1592 3.03798 52.0456 3.03798H50.8389C50.7325 3.03798 50.6863 3.06992 50.6686 3.19058L50.1327 6.22141C50.1078 6.33498 50.1398 6.37402 50.2533 6.37402H51.4529C51.5736 6.37402 51.6162 6.33498 51.641 6.22141L51.7794 5.42644H53.1245L52.947 6.4237C52.8157 7.17609 52.3863 7.54163 51.6587 7.54163H49.65C48.9154 7.54163 48.6208 7.17609 48.7592 6.4237Z" fill="white"/>
<path d="M53.7277 6.4237L54.3275 2.98829C54.4659 2.22526 54.8776 1.87036 55.6158 1.87036H57.7629C58.5082 1.87036 58.7992 2.22526 58.6644 2.98829L58.0646 6.4237C57.9262 7.17609 57.5145 7.54163 56.7692 7.54163H54.6185C53.8839 7.54163 53.5893 7.17609 53.7277 6.4237ZM56.5811 6.37402C56.6876 6.37402 56.7266 6.33498 56.7515 6.22141L57.2874 3.19058C57.3051 3.06992 57.2803 3.03798 57.1667 3.03798H55.8145C55.7081 3.03798 55.6619 3.06992 55.6442 3.19058L55.1083 6.22141C55.0834 6.33498 55.1154 6.37402 55.229 6.37402H56.5811Z" fill="white"/>
<path d="M59.0301 6.42371L59.825 1.86682H61.1701L60.4177 6.19658C60.3929 6.30305 60.4355 6.34918 60.5313 6.34918H61.7876C61.9012 6.34918 61.9509 6.2995 61.9757 6.19658L62.7281 1.86682H64.0732L63.2746 6.42371C63.1362 7.1619 62.6997 7.54164 61.9793 7.54164H59.9209C59.2004 7.54164 58.8917 7.15835 59.0301 6.42371Z" fill="white"/>
<path d="M65.1308 1.86682H66.4368L67.8564 5.19931L68.4385 1.86682H69.7445L68.7472 7.54164H67.5725L66.0642 4.0246L65.4396 7.54164H64.1335L65.1308 1.86682Z" fill="white"/>
<path d="M71.6962 3.04153H70.2625L70.4647 1.86682H74.688L74.4857 3.04153H73.0413L72.2463 7.54164H70.9013L71.6962 3.04153Z" fill="white"/>
</svg>
