<svg width="22" height="22" viewBox="0 0 22 22" fill="none" xmlns="http://www.w3.org/2000/svg">
<g opacity="0.5">
<path d="M19.4793 8.3875C17.3618 5.06 14.2635 3.14417 11.0002 3.14417C9.3685 3.14417 7.78266 3.62083 6.33433 4.51C4.886 5.40833 3.58433 6.71916 2.521 8.3875C1.60433 9.82666 1.60433 12.1642 2.521 13.6033C4.6385 16.94 7.73683 18.8467 11.0002 18.8467C12.6318 18.8467 14.2177 18.37 15.666 17.4808C17.1143 16.5825 18.416 15.2717 19.4793 13.6033C20.396 12.1733 20.396 9.82666 19.4793 8.3875ZM11.0002 14.7033C8.94683 14.7033 7.29683 13.0442 7.29683 11C7.29683 8.95583 8.94683 7.29666 11.0002 7.29666C13.0535 7.29666 14.7035 8.95583 14.7035 11C14.7035 13.0442 13.0535 14.7033 11.0002 14.7033Z" fill="white"/>
<path d="M11.0002 8.37833C9.56103 8.37833 8.3877 9.55166 8.3877 11C8.3877 12.4392 9.56103 13.6125 11.0002 13.6125C12.4394 13.6125 13.6219 12.4392 13.6219 11C13.6219 9.56083 12.4394 8.37833 11.0002 8.37833Z" fill="white"/>
</g>
</svg>
