<svg width="26" height="18" viewBox="0 0 26 18" fill="none" xmlns="http://www.w3.org/2000/svg">
<path d="M17 9C17 10.0609 16.5786 11.0783 15.8284 11.8284C15.0783 12.5786 14.0609 13 13 13C11.9391 13 10.9217 12.5786 10.1716 11.8284C9.42143 11.0783 9 10.0609 9 9C9 7.93913 9.42143 6.92172 10.1716 6.17157C10.9217 5.42143 11.9391 5 13 5C14.0609 5 15.0783 5.42143 15.8284 6.17157C16.5786 6.92172 17 7.93913 17 9Z" fill="#00AEEF"/>
<path fill-rule="evenodd" clip-rule="evenodd" d="M0 9C0 9 4.875 0 13 0C21.125 0 26 9 26 9C26 9 21.125 18 13 18C4.875 18 0 9 0 9ZM13 14.7273C14.5084 14.7273 15.9551 14.1239 17.0217 13.0498C18.0883 11.9757 18.6875 10.519 18.6875 9C18.6875 7.48103 18.0883 6.02428 17.0217 4.95021C15.9551 3.87613 14.5084 3.27273 13 3.27273C11.4916 3.27273 10.0449 3.87613 8.97833 4.95021C7.91172 6.02428 7.3125 7.48103 7.3125 9C7.3125 10.519 7.91172 11.9757 8.97833 13.0498C10.0449 14.1239 11.4916 14.7273 13 14.7273Z" fill="#00AEEF"/>
</svg>
