<svg width="27" height="27" viewBox="0 0 27 27" fill="none" xmlns="http://www.w3.org/2000/svg">
<path d="M26.4073 10.722H25.3333V10.6667H13.3333V16H20.8687C19.7693 19.1047 16.8153 21.3333 13.3333 21.3333C8.91533 21.3333 5.33333 17.7513 5.33333 13.3333C5.33333 8.91533 8.91533 5.33333 13.3333 5.33333C15.3727 5.33333 17.228 6.10266 18.6407 7.35933L22.412 3.588C20.0307 1.36867 16.8453 0 13.3333 0C5.97 0 0 5.97 0 13.3333C0 20.6967 5.97 26.6667 13.3333 26.6667C20.6967 26.6667 26.6667 20.6967 26.6667 13.3333C26.6667 12.4393 26.5747 11.5667 26.4073 10.722Z" fill="#FFC107"/>
<path d="M1.53711 7.12733L5.91777 10.34C7.10311 7.40533 9.97377 5.33333 13.3331 5.33333C15.3724 5.33333 17.2278 6.10267 18.6404 7.35933L22.4118 3.588C20.0304 1.36867 16.8451 0 13.3331 0C8.21177 0 3.77044 2.89133 1.53711 7.12733Z" fill="#FF3D00"/>
<path d="M13.3334 26.6666C16.7774 26.6666 19.9067 25.3486 22.2727 23.2052L18.146 19.7132C16.8074 20.7272 15.1434 21.3332 13.3334 21.3332C9.86538 21.3332 6.92071 19.1219 5.81138 16.0359L1.46338 19.3859C3.67005 23.7039 8.15138 26.6666 13.3334 26.6666Z" fill="#4CAF50"/>
<path d="M26.4075 10.7221H25.3335V10.6667H13.3335V16.0001H20.8688C20.3408 17.4914 19.3815 18.7774 18.1442 19.7141C18.1448 19.7134 18.1455 19.7134 18.1462 19.7127L22.2728 23.2047C21.9808 23.4701 26.6668 20.0001 26.6668 13.3334C26.6668 12.4394 26.5748 11.5667 26.4075 10.7221Z" fill="#1976D2"/>
</svg>
