<svg width="20" height="13" viewBox="0 0 20 13" fill="none" xmlns="http://www.w3.org/2000/svg">
<path d="M10.131 6.10237C10.4763 5.67737 10.732 5.23909 10.898 4.78752C11.064 4.33596 11.147 3.81135 11.147 3.21369C11.147 2.61603 11.064 2.09142 10.898 1.63985C10.732 1.18829 10.4763 0.750008 10.131 0.325007C11.1404 0.0992247 12.0269 0.25196 12.7906 0.783212C13.5542 1.31446 13.9361 2.12462 13.9361 3.21369C13.9361 4.30275 13.5542 5.11291 12.7906 5.64417C12.0269 6.17542 11.1404 6.32815 10.131 6.10237ZM14.4341 12.5969V10.7243C14.4341 10.0469 14.2615 9.41605 13.9162 8.83168C13.5708 8.2473 12.9732 7.75589 12.1232 7.35745C14.4208 7.64964 15.9914 8.07464 16.8347 8.63246C17.6781 9.19027 18.0998 9.88754 18.0998 10.7243V12.5969H14.4341ZM16.6255 6.83948V4.84729H14.6333V3.65197H16.6255V1.65978H17.8209V3.65197H19.8131V4.84729H17.8209V6.83948H16.6255ZM6.9634 6.20198C6.08683 6.20198 5.36964 5.92307 4.81183 5.36526C4.25402 4.80744 3.97511 4.09025 3.97511 3.21369C3.97511 2.33712 4.25402 1.61993 4.81183 1.06212C5.36964 0.504304 6.08683 0.225397 6.9634 0.225397C7.83997 0.225397 8.55716 0.504304 9.11497 1.06212C9.67278 1.61993 9.95169 2.33712 9.95169 3.21369C9.95169 4.09025 9.67278 4.80744 9.11497 5.36526C8.55716 5.92307 7.83997 6.20198 6.9634 6.20198ZM0.687988 12.5969V10.7243C0.687988 10.2594 0.81084 9.83773 1.05654 9.45922C1.30225 9.0807 1.63096 8.79847 2.04268 8.61253C2.99893 8.18753 3.85226 7.88206 4.60265 7.69613C5.35304 7.51019 6.13996 7.41722 6.9634 7.41722C7.78684 7.41722 8.57044 7.51019 9.31419 7.69613C10.0579 7.88206 10.9079 8.18753 11.8642 8.61253C12.2759 8.79847 12.608 9.0807 12.8603 9.45922C13.1126 9.83773 13.2388 10.2594 13.2388 10.7243V12.5969H0.687988ZM6.9634 5.00666C7.48137 5.00666 7.90969 4.83733 8.24837 4.49865C8.58704 4.15998 8.75637 3.73166 8.75637 3.21369C8.75637 2.69572 8.58704 2.2674 8.24837 1.92872C7.90969 1.59005 7.48137 1.42071 6.9634 1.42071C6.44543 1.42071 6.01711 1.59005 5.67843 1.92872C5.33976 2.2674 5.17043 2.69572 5.17043 3.21369C5.17043 3.73166 5.33976 4.15998 5.67843 4.49865C6.01711 4.83733 6.44543 5.00666 6.9634 5.00666ZM1.8833 11.4016H12.0435V10.7243C12.0435 10.5118 11.9904 10.3125 11.8841 10.1266C11.7779 9.94066 11.6119 9.79457 11.3861 9.68832C10.4697 9.26332 9.69271 8.97777 9.0552 8.83168C8.4177 8.68558 7.72043 8.61253 6.9634 8.61253C6.20637 8.61253 5.51242 8.68558 4.88156 8.83168C4.2507 8.97777 3.46378 9.26332 2.52081 9.68832C2.32159 9.78129 2.16553 9.92406 2.05264 10.1166C1.93975 10.3092 1.8833 10.5118 1.8833 10.7243V11.4016Z" fill="white"/>
</svg>
