<svg width="16" height="14" viewBox="0 0 16 14" fill="none" xmlns="http://www.w3.org/2000/svg">
<path d="M11.2146 0.0290527C10.493 0.0291786 9.78441 0.22137 9.16162 0.585892C8.53883 0.950413 8.02428 1.47413 7.67081 2.10326C7.31726 1.47398 6.80255 0.950167 6.17957 0.585637C5.55659 0.221106 4.84779 0.0289995 4.12599 0.0290527C3.02053 0.0887562 1.98064 0.572344 1.22265 1.37922C0.46465 2.18609 0.0469041 3.25413 0.0563077 4.36116C0.0563077 10.0064 7.67081 13.9449 7.67081 13.9449C7.67081 13.9449 15.2853 10.0085 15.2853 4.36116C15.2947 3.25397 14.8768 2.18579 14.1186 1.37888C13.3604 0.571983 12.3203 0.0885054 11.2146 0.0290527V0.0290527Z" fill="white"/>
</svg>
