<svg width="28" height="28" viewBox="0 0 28 28" fill="none" xmlns="http://www.w3.org/2000/svg">
<path d="M13.8365 27.673C21.4782 27.673 27.673 21.4782 27.673 13.8365C27.673 6.19482 21.4782 0 13.8365 0C6.19482 0 0 6.19482 0 13.8365C0 21.4782 6.19482 27.673 13.8365 27.673Z" fill="#02AFEF"/>
<path d="M13.2066 18.5043H14.6069V12.9031H13.2066V18.5043ZM13.8368 11.1761C14.0546 11.1761 14.2374 11.1061 14.3852 10.966C14.533 10.826 14.6069 10.6471 14.6069 10.4293C14.6069 10.2114 14.533 10.0247 14.3852 9.86914C14.2374 9.71355 14.0546 9.63576 13.8368 9.63576C13.6189 9.63576 13.4361 9.71355 13.2883 9.86914C13.1405 10.0247 13.0666 10.2114 13.0666 10.4293C13.0666 10.6471 13.1405 10.826 13.2883 10.966C13.4361 11.1061 13.6189 11.1761 13.8368 11.1761ZM13.8368 23.1719C12.5609 23.1719 11.3551 22.9269 10.2193 22.4368C9.08354 21.9467 8.09167 21.2777 7.24371 20.4297C6.39575 19.5817 5.72672 18.5899 5.23662 17.4541C4.74652 16.3183 4.50146 15.1047 4.50146 13.8133C4.50146 12.5375 4.74652 11.3317 5.23662 10.1959C5.72672 9.06008 6.39575 8.0721 7.24371 7.23192C8.09167 6.39174 9.08354 5.7266 10.2193 5.2365C11.3551 4.74639 12.5687 4.50134 13.8601 4.50134C15.1359 4.50134 16.3417 4.74639 17.4775 5.2365C18.6133 5.7266 19.6013 6.39174 20.4415 7.23192C21.2817 8.0721 21.9468 9.06008 22.4369 10.1959C22.927 11.3317 23.1721 12.5453 23.1721 13.8366C23.1721 15.1125 22.927 16.3183 22.4369 17.4541C21.9468 18.5899 21.2817 19.5817 20.4415 20.4297C19.6013 21.2777 18.6133 21.9467 17.4775 22.4368C16.3417 22.9269 15.1281 23.1719 13.8368 23.1719ZM13.8601 21.7717C16.0539 21.7717 17.921 20.9976 19.4613 19.4495C21.0016 17.9014 21.7718 16.0227 21.7718 13.8133C21.7718 11.6195 21.0016 9.75245 19.4613 8.21212C17.921 6.6718 16.0461 5.90164 13.8368 5.90164C11.643 5.90164 9.77202 6.6718 8.22392 8.21212C6.67581 9.75245 5.90176 11.6273 5.90176 13.8366C5.90176 16.0304 6.67581 17.9014 8.22392 19.4495C9.77202 20.9976 11.6507 21.7717 13.8601 21.7717Z" fill="white"/>
</svg>
