<svg width="33" height="36" viewBox="0 0 33 36" fill="none" xmlns="http://www.w3.org/2000/svg">
<path d="M24.3133 35.0993C22.1861 35.0993 20.3657 34.3425 18.8521 32.8289C17.3386 31.3153 16.5818 29.495 16.5818 27.3678C16.5818 25.2406 17.3386 23.4202 18.8521 21.9067C20.3657 20.3931 22.1861 19.6363 24.3133 19.6363C26.4404 19.6363 28.2608 20.3931 29.7744 21.9067C31.288 23.4202 32.0447 25.2406 32.0447 27.3678C32.0447 29.495 31.288 31.3153 29.7744 32.8289C28.2608 34.3425 26.4404 35.0993 24.3133 35.0993ZM26.6859 31.4994L27.8313 30.354L24.7632 27.286V22.7043H23.1679V27.8587L26.6859 31.4994ZM3.40964 32.8903C2.72785 32.8903 2.14833 32.6516 1.67108 32.1744C1.19383 31.6971 0.9552 31.1176 0.9552 30.4358V6.62778C0.9552 5.94599 1.16655 5.36647 1.58926 4.88922C2.01197 4.41197 2.37332 4.17334 2.67331 4.17334H10.9366C11.1275 3.21884 11.5979 2.43478 12.3479 1.82117C13.0978 1.20756 13.9637 0.900757 14.9455 0.900757C15.9273 0.900757 16.7931 1.20756 17.5431 1.82117C18.2931 2.43478 18.7635 3.21884 18.9544 4.17334H27.2177C27.8995 4.17334 28.479 4.41197 28.9562 4.88922C29.4335 5.36647 29.6721 5.94599 29.6721 6.62778V18.6954C29.263 18.45 28.8608 18.2386 28.4654 18.0614C28.0699 17.8841 27.654 17.7273 27.2177 17.5909V6.62778H22.8815V11.9457H7.74581V6.62778H3.40964V30.4358H14.5773C14.7137 30.8449 14.8773 31.2472 15.0682 31.6426C15.2591 32.038 15.4909 32.4539 15.7636 32.8903H3.40964ZM15.6818 6.46415C16.1454 6.46415 16.5341 6.30734 16.8477 5.99372C17.1613 5.68009 17.3181 5.29147 17.3181 4.82786C17.3181 4.36424 17.1613 3.97562 16.8477 3.662C16.5341 3.34838 16.1454 3.19157 15.6818 3.19157C15.2182 3.19157 14.8296 3.34838 14.516 3.662C14.2023 3.97562 14.0455 4.36424 14.0455 4.82786C14.0455 5.29147 14.2023 5.68009 14.516 5.99372C14.8296 6.30734 15.2182 6.46415 15.6818 6.46415Z" fill="#07CFE1"/>
</svg>
