<svg width="18" height="22" viewBox="0 0 18 22" fill="none" xmlns="http://www.w3.org/2000/svg">
<path d="M8.77478 10.694C9.29315 10.694 9.73555 10.5108 10.102 10.1443C10.4684 9.77791 10.6516 9.33551 10.6516 8.81713C10.6516 8.29876 10.4684 7.85636 10.102 7.48992C9.73555 7.12349 9.29315 6.94027 8.77478 6.94027C8.2564 6.94027 7.814 7.12349 7.44756 7.48992C7.08113 7.85636 6.89791 8.29876 6.89791 8.81713C6.89791 9.33551 7.08113 9.77791 7.44756 10.1443C7.814 10.5108 8.2564 10.694 8.77478 10.694ZM8.77478 21.6871C5.89692 19.2382 3.74746 16.9636 2.32641 14.8633C0.905352 12.763 0.194824 10.8191 0.194824 9.03163C0.194824 6.3504 1.05729 4.21435 2.78222 2.62348C4.50714 1.03262 6.50466 0.237183 8.77478 0.237183C11.0449 0.237183 13.0424 1.03262 14.7673 2.62348C16.4923 4.21435 17.3547 6.3504 17.3547 9.03163C17.3547 10.8191 16.6442 12.763 15.2231 14.8633C13.8021 16.9636 11.6526 19.2382 8.77478 21.6871Z" fill="#00AEEF"/>
</svg>
