<svg width="34" height="37" viewBox="0 0 34 37" fill="none" xmlns="http://www.w3.org/2000/svg">
<path d="M16.6811 30.6536C16.6811 31.3268 16.6881 31.9072 16.6811 32.4876C16.6347 35.4994 13.5189 37.3475 10.874 35.8915C8.66333 34.6744 6.49482 33.3772 4.30804 32.1166C3.86253 31.8594 3.41984 31.5966 2.97152 31.3451C1.5563 30.5524 0.850792 29.3536 0.860629 27.729C0.869062 26.3475 0.860629 24.966 0.860629 23.5845C0.860629 17.2617 0.856413 10.9403 0.86344 4.61743C0.866251 2.63021 1.79521 1.2178 3.48167 0.64159C3.89486 0.501052 4.34739 0.412512 4.78166 0.411107C10.6351 0.395648 16.4899 0.395648 22.3434 0.40408C24.4641 0.406891 26.1688 2.00622 26.2447 4.1157C26.3051 5.82325 26.2798 7.5336 26.2616 9.24255C26.2517 10.0914 25.7345 10.5805 24.956 10.5678C24.2125 10.5566 23.6911 10.0099 23.6841 9.19055C23.6714 7.62214 23.6869 6.05233 23.6771 4.48391C23.6714 3.5676 23.1753 2.99983 22.2689 2.99702C17.284 2.97875 12.2977 2.98858 7.24249 3.11226C7.44064 3.23312 7.6374 3.35961 7.83977 3.47625C10.0251 4.7397 12.1993 6.02562 14.4029 7.25674C15.9657 8.12949 16.7078 9.39012 16.6965 11.196C16.6614 16.5112 16.6839 21.8264 16.6839 27.143C16.6839 27.4198 16.6839 27.6981 16.6839 28.0199C16.9073 28.0438 17.0858 28.0775 17.2643 28.0789C18.8566 28.0832 20.4489 28.086 22.0412 28.0789C23.1796 28.0747 23.6757 27.5828 23.6799 26.4641C23.6841 25.1065 23.6686 23.7475 23.6883 22.3899C23.6981 21.735 24.0902 21.267 24.7002 21.1209C25.268 20.9845 25.7289 21.2066 26.0381 21.6634C26.1843 21.8798 26.2574 22.1862 26.2602 22.4532C26.2784 23.9274 26.3037 25.4045 26.2517 26.8787C26.1758 29.0599 24.5428 30.6227 22.3462 30.6508C20.4995 30.6733 18.6514 30.655 16.6811 30.655V30.6536Z" fill="#192C44"/>
<path d="M28.4679 13.99C28.0856 13.6499 27.6837 13.328 27.3239 12.9655C26.6647 12.3021 26.6352 11.5474 27.2128 10.9881C27.7525 10.4653 28.5283 10.506 29.1438 11.1146C30.2766 12.2333 31.4023 13.359 32.5196 14.4917C33.1998 15.1818 33.2012 15.8802 32.5196 16.5745C31.4023 17.7086 30.2766 18.8344 29.1438 19.9516C28.51 20.577 27.7666 20.6136 27.2171 20.0767C26.6352 19.5103 26.6647 18.7767 27.3239 18.1007C27.6822 17.7339 28.08 17.4037 28.4594 17.0565C28.4383 16.9877 28.4159 16.9202 28.3948 16.8514C28.1601 16.8514 27.9268 16.8514 27.6921 16.8514C25.0233 16.8514 22.3544 16.8514 19.687 16.8514C19.5001 16.8514 19.3118 16.8612 19.1249 16.8457C18.3716 16.7853 17.8136 16.233 17.8038 15.5486C17.794 14.8993 18.3111 14.3371 19.0293 14.2387C19.2598 14.2064 19.4959 14.2148 19.7306 14.2148C22.3516 14.2134 24.9741 14.2148 27.5951 14.2148C27.8467 14.2148 28.0982 14.2148 28.3512 14.2148L28.4693 13.9914L28.4679 13.99Z" fill="#99EDFC"/>
</svg>
