<svg width="31" height="33" viewBox="0 0 31 33" fill="none" xmlns="http://www.w3.org/2000/svg">
<path d="M5.99928 23.9923H28.6042V10.9524C29.0277 10.8278 29.42 10.6597 29.7812 10.448C30.1424 10.2362 30.4973 9.99338 30.8461 9.71938V23.9923C30.8461 24.5652 30.6156 25.082 30.1548 25.5429C29.694 26.0037 29.1772 26.2341 28.6042 26.2341H6.93337L0.9552 32.2123V4.56321C0.9552 3.9903 1.17938 3.47344 1.62774 3.01262C2.07611 2.5518 2.5992 2.32139 3.19701 2.32139H19.5249C19.4253 2.67012 19.3505 3.03753 19.3007 3.42362C19.2509 3.80971 19.2384 4.18957 19.2633 4.56321H3.19701V26.7945L5.99928 23.9923ZM6.93337 20.2933H18.6282V18.0515H6.93337V20.2933ZM6.93337 15.436H24.8679V13.1942H6.93337V15.436ZM6.93337 10.5787H23.1865C22.6634 10.3047 22.1839 9.98093 21.748 9.60729C21.3121 9.23365 20.9198 8.8102 20.5711 8.33693H6.93337V10.5787ZM3.19701 4.56321V23.9923V4.56321ZM26.3624 8.33693C25.2166 8.33693 24.2452 7.93838 23.4481 7.14129C22.651 6.34421 22.2524 5.37275 22.2524 4.22694C22.2524 3.08112 22.651 2.10967 23.4481 1.31258C24.2452 0.515488 25.2166 0.116943 26.3624 0.116943C27.5082 0.116943 28.4797 0.515488 29.2768 1.31258C30.0739 2.10967 30.4724 3.08112 30.4724 4.22694C30.4724 5.37275 30.0739 6.34421 29.2768 7.14129C28.4797 7.93838 27.5082 8.33693 26.3624 8.33693Z" fill="#00AEEF"/>
</svg>
