<svg width="23" height="18" viewBox="0 0 23 18" fill="none" xmlns="http://www.w3.org/2000/svg">
<path d="M8.56717 9.18574C8.57656 8.15443 8.8536 7.14324 9.37119 6.25117C9.88878 5.3591 10.6291 4.61676 11.5198 4.09678C11.6971 3.9567 11.9076 3.86493 12.1309 3.83041C12.3542 3.7959 12.5826 3.81982 12.7939 3.89983C13.0052 3.97985 13.1922 4.11325 13.3366 4.28701C13.481 4.46077 13.578 4.66896 13.618 4.89133C13.836 5.53113 14.0997 6.15569 14.3112 6.79768C14.3675 6.99039 14.4738 7.16475 14.6193 7.30314C14.7648 7.44152 14.9443 7.53902 15.1395 7.5857C15.787 7.77208 16.4344 7.95629 17.0786 8.1503C17.1632 8.16629 17.2438 8.19902 17.3156 8.24656C17.3875 8.29411 17.4491 8.35552 17.4969 8.42718C17.5447 8.49885 17.5778 8.57932 17.5941 8.66391C17.6104 8.7485 17.6097 8.8355 17.5919 8.9198C17.5821 9.01077 17.5529 9.09858 17.5062 9.17729C17.4595 9.25599 17.3965 9.32376 17.3214 9.37603C17.2463 9.4283 17.1608 9.46387 17.0708 9.48031C16.9808 9.49675 16.8883 9.49368 16.7995 9.47133C16.151 9.38086 15.5047 9.27949 14.8616 9.15523C14.3794 9.08297 13.9222 8.89395 13.5297 8.60464C13.1372 8.31532 12.8215 7.93446 12.6098 7.49523C12.5008 7.27724 12.3678 7.06907 12.225 6.82056C11.7237 7.30899 11.387 7.94136 11.2615 8.62988C11.1819 8.94597 11.2615 9.09636 11.5754 9.20426C12.5084 9.52362 13.4348 9.86478 14.3569 10.2157C14.5406 10.2599 14.7102 10.3496 14.8501 10.4765C14.99 10.6035 15.0956 10.7636 15.1573 10.9421C15.219 11.1207 15.2347 11.3119 15.203 11.4981C15.1713 11.6843 15.0933 11.8595 14.976 12.0076C14.5139 12.7706 14.0191 13.5139 13.5297 14.2606C13.1831 14.7892 13.1765 14.7848 13.5297 15.3211C13.5515 15.3538 13.5896 15.3876 13.5896 15.4203C13.5896 15.5957 13.643 15.8268 13.5536 15.9315C13.4879 15.9963 13.408 16.045 13.3203 16.0737C13.2325 16.1025 13.1393 16.1105 13.0479 16.0971C12.5776 15.9639 12.1173 15.7978 11.6702 15.6001C11.5833 15.5717 11.5038 15.5242 11.4377 15.461C11.3716 15.3978 11.3205 15.3205 11.2883 15.2349C11.2561 15.1493 11.2435 15.0576 11.2515 14.9665C11.2595 14.8753 11.2879 14.7872 11.3346 14.7085C11.6768 13.8853 12.0201 13.062 12.3645 12.2387C12.3928 12.17 12.4136 12.0992 12.443 12.0207C11.7138 11.8027 11.001 11.5913 10.2958 11.3667C9.98546 11.2806 9.68649 11.1576 9.40532 11.0005C9.10873 10.8078 8.87267 10.5352 8.72437 10.2141C8.57606 9.89298 8.52157 9.53648 8.56717 9.18574Z" fill="#00AEEF"/>
<path d="M6.89131 10.1731C6.25587 10.1807 5.61934 10.1666 4.9839 10.1796C4.72055 10.1853 4.45839 10.2171 4.20129 10.2745C3.66087 10.3886 3.1626 10.6502 2.76169 11.0301C2.36077 11.4101 2.07287 11.8936 1.92985 12.4271L1.70101 13.1127L1.5637 13.0963C1.36163 12.6257 1.28655 12.1102 1.34603 11.6014C1.40551 11.0927 1.59738 10.6084 1.90258 10.1971C1.29003 10.0652 0.985982 9.77637 0.975082 9.27935C0.946017 7.99393 0.926447 6.70815 0.916274 5.42201C0.909837 5.3011 0.928618 5.18017 0.97149 5.06693C1.01436 4.95369 1.08031 4.85061 1.16521 4.76427C1.25011 4.67794 1.35207 4.61023 1.46458 4.56546C1.57708 4.5207 1.69762 4.49985 1.81862 4.50426C3.15854 4.49191 4.49857 4.49191 5.83848 4.50426C6.10177 4.50415 6.35614 4.59935 6.55469 4.77226C6.75325 4.94516 6.88252 5.18409 6.91859 5.44489C7.16274 6.71505 7.40358 7.98666 7.64119 9.25972C7.67342 9.37147 7.67797 9.48938 7.65449 9.60329C7.63101 9.7172 7.58021 9.82368 7.50641 9.91357C7.43261 10.0035 7.33802 10.0741 7.23086 10.1193C7.1237 10.1645 7.0072 10.1829 6.89131 10.1731Z" fill="#00AEEF"/>
<path d="M17.3573 11.3836C17.559 11.2823 17.6407 11.1853 17.5546 10.9596C17.4933 10.7821 17.4466 10.5998 17.4151 10.4147C17.3563 10.1247 17.4543 9.92637 17.6723 9.86969C17.911 9.80538 18.1007 9.93619 18.1802 10.2283C18.2522 10.491 18.3165 10.7569 18.3906 11.0501C18.6556 11.0353 18.9213 11.0353 19.1863 11.0501C19.8423 11.1312 20.4576 11.4111 20.9498 11.8522C21.442 12.2933 21.7874 12.8746 21.9395 13.5178C22.0904 14.1623 22.0412 14.8376 21.7986 15.4535C21.5559 16.0694 21.1313 16.5968 20.5814 16.9653C20.0313 17.329 19.3831 17.5157 18.7238 17.5003C18.0644 17.4849 17.4256 17.2681 16.893 16.8792C16.4488 16.5503 16.0961 16.1133 15.8684 15.6097C15.6406 15.1061 15.5455 14.5526 15.5921 14.0019C15.6386 13.4511 15.8252 12.9214 16.1342 12.4632C16.4432 12.0049 16.8642 11.6333 17.3573 11.3836ZM16.9835 14.9478C17.1527 15.4008 17.4845 15.7746 17.9143 15.9963C18.3442 16.2179 18.8412 16.2716 19.3084 16.1467C19.7862 16.0141 20.1956 15.7046 20.4537 15.2812C20.7117 14.8578 20.7991 14.352 20.698 13.8665C20.6061 13.415 20.3532 13.0124 19.9865 12.7335C19.6197 12.4546 19.1642 12.3184 18.7045 12.3504C18.7906 12.6839 18.868 13.012 18.9661 13.3314C18.9825 13.387 19.0751 13.4251 19.1449 13.46C19.2581 13.5087 19.3597 13.5808 19.443 13.6717C19.5262 13.7625 19.5893 13.87 19.628 13.987C19.6668 14.104 19.6803 14.2278 19.6676 14.3504C19.655 14.473 19.6164 14.5915 19.5547 14.6982C19.496 14.8001 19.4174 14.8891 19.3235 14.9598C19.2296 15.0305 19.1223 15.0815 19.0081 15.1097C18.894 15.1379 18.7753 15.1427 18.6593 15.1239C18.5432 15.1051 18.4322 15.0629 18.3328 15.0001C18.2303 14.9324 18.1429 14.8442 18.0762 14.7411C18.0094 14.638 17.9648 14.5222 17.945 14.4009C17.9252 14.2797 17.9308 14.1557 17.9614 14.0367C17.9919 13.9177 18.0468 13.8063 18.1225 13.7096C18.1787 13.616 18.1999 13.5056 18.1824 13.3979C18.129 13.1112 18.0462 12.8311 17.9644 12.5259C17.5281 12.7343 17.1856 13.0984 17.0041 13.5465C16.8226 13.9947 16.8152 14.4945 16.9835 14.9478Z" fill="#00AEEF"/>
<path d="M5.69873 11.0412C6.12357 11.0356 6.5452 11.1149 6.93902 11.2744C7.33285 11.4338 7.69091 11.6702 7.99225 11.9697C8.2936 12.2692 8.53226 12.6258 8.6941 13.0187C8.85593 13.4115 8.93772 13.8327 8.93478 14.2576C8.93852 14.6822 8.85821 15.1034 8.69849 15.4969C8.53876 15.8904 8.30275 16.2484 8.00409 16.5503C7.70544 16.8522 7.35005 17.092 6.95832 17.256C6.56658 17.42 6.14627 17.5048 5.72161 17.5057C5.29685 17.5062 4.87624 17.4228 4.48384 17.2602C4.09144 17.0976 3.73498 16.859 3.43513 16.5581C3.13529 16.2573 2.89791 15.9001 2.73662 15.5071C2.57533 15.1142 2.49339 14.6933 2.4954 14.2685C2.49337 13.4161 2.82945 12.5976 3.42995 11.9926C4.03045 11.3876 4.84632 11.0455 5.69873 11.0412ZM5.72267 16.2162C6.23715 16.2105 6.72887 16.003 7.09177 15.6382C7.45466 15.2735 7.65971 14.7808 7.66282 14.2663C7.65911 13.7509 7.45265 13.2576 7.08817 12.8932C6.7237 12.5287 6.23052 12.3223 5.71509 12.3186C5.46022 12.3196 5.20804 12.371 4.9732 12.4701C4.73836 12.5691 4.52552 12.7138 4.34693 12.8956C4.16834 13.0775 4.02755 13.2929 3.93274 13.5295C3.83794 13.7661 3.79103 14.0191 3.79464 14.2739C3.79116 14.5285 3.83839 14.7812 3.93368 15.0173C4.02896 15.2534 4.17039 15.4681 4.34959 15.6489C4.52879 15.8297 4.74211 15.973 4.97732 16.0704C5.21253 16.1679 5.4649 16.2174 5.71948 16.2162H5.72267Z" fill="#00AEEF"/>
<path d="M17.0188 2.21011C16.3793 2.08717 15.7478 1.92594 15.1277 1.72727C14.72 1.60628 14.502 1.7349 14.5598 2.15563C14.6212 2.51263 14.7008 2.86622 14.7985 3.21504C14.8247 3.35105 14.8892 3.4768 14.9844 3.5774C15.0796 3.67801 15.2015 3.74933 15.3359 3.78297C15.8907 3.9312 16.4465 4.07507 17.0067 4.20041C17.2683 4.25818 17.3338 4.34647 17.167 4.56664C17.0633 4.73011 16.9106 4.85661 16.7307 4.92807C16.5508 4.99952 16.3529 5.01226 16.1653 4.96446C15.4824 4.8037 14.8118 4.59424 14.1587 4.33772C13.73 4.15714 13.3683 3.84716 13.1243 3.45107C12.8802 3.05499 12.7659 2.59259 12.7974 2.12842C12.845 1.85968 12.9162 1.59563 13.0099 1.33929C13.1898 0.918164 13.4964 0.563438 13.887 0.324382C14.2776 0.0853272 14.7329 -0.026205 15.1898 0.00519384C15.6815 0.0317622 16.1544 0.202492 16.5496 0.496151C16.9449 0.78981 17.2449 1.19334 17.4122 1.65642C17.5746 2.10112 17.4755 2.28314 17.0188 2.21011Z" fill="#00AEEF"/>
<path d="M19.9659 10.3622C19.6939 10.2884 19.4313 10.1834 19.1834 10.0493C18.9778 9.94209 18.806 9.77983 18.6872 9.58063C18.5685 9.38143 18.5074 9.15312 18.5109 8.92123C18.5086 8.57076 18.6147 8.22816 18.8147 7.94035C19.0147 7.65253 19.2988 7.43362 19.628 7.31358C19.701 7.25689 19.7861 7.2178 19.8766 7.19935C19.9672 7.18091 20.0607 7.18358 20.1501 7.2072C20.2394 7.23083 20.322 7.27474 20.3916 7.33553C20.4612 7.39632 20.5159 7.47238 20.5513 7.55773C20.8395 8.0251 20.9786 8.5691 20.9502 9.11745C20.8874 9.42616 20.8036 9.73023 20.6995 10.0275C20.68 10.1022 20.6441 10.1717 20.5944 10.2307C20.5447 10.2898 20.4825 10.3371 20.4122 10.3692C20.342 10.4012 20.2655 10.4172 20.1883 10.416C20.1111 10.4148 20.0351 10.3964 19.9659 10.3622Z" fill="#00AEEF"/>
<path d="M15.01 1.92141C15.0558 1.90724 15.1932 2.0304 15.2008 2.10343C15.2084 2.17645 15.1223 2.27892 15.0329 2.45222C14.9097 2.29199 14.792 2.20478 14.7997 2.12521C14.8073 2.04565 14.9217 1.94321 15.01 1.92141Z" fill="#00AEEF"/>
<path d="M5.67001 13.3928C5.78969 13.3854 5.90966 13.4024 6.02259 13.4427C6.13552 13.483 6.23907 13.5458 6.32701 13.6274C6.41495 13.7089 6.48542 13.8074 6.53417 13.917C6.58292 14.0265 6.60899 14.1448 6.61068 14.2647C6.61019 14.4971 6.52084 14.7205 6.36094 14.8891C6.20104 15.0577 5.98265 15.1588 5.75064 15.1716C5.63304 15.1749 5.5159 15.155 5.40604 15.1129C5.29617 15.0708 5.19582 15.0075 5.11053 14.9264C5.02524 14.8454 4.95673 14.7483 4.90909 14.6407C4.86146 14.5332 4.83554 14.4172 4.83285 14.2996C4.82715 14.1849 4.84437 14.0701 4.88355 13.9621C4.92272 13.854 4.98309 13.7549 5.06104 13.6705C5.13898 13.586 5.23296 13.518 5.33751 13.4703C5.44207 13.4226 5.55515 13.3963 5.67001 13.3928Z" fill="#00AEEF"/>
</svg>
