<svg width="22" height="25" viewBox="0 0 22 25" fill="none" xmlns="http://www.w3.org/2000/svg">
<path d="M20.9723 10.4606C20.864 9.49517 20.4166 8.59943 19.71 7.93279C19.0033 7.26615 18.0833 6.87181 17.1132 6.81979V6.53601C17.1141 5.72855 16.9553 4.92897 16.6462 4.18303C16.3371 3.43708 15.8836 2.75951 15.3118 2.18941C14.7413 1.61757 14.0633 1.16413 13.317 0.855019C12.5707 0.545907 11.7707 0.387244 10.9629 0.388188C9.33226 0.388785 7.76865 1.03679 6.61561 2.18982C5.46258 3.34286 4.81457 4.90661 4.81398 6.53724V6.82419C3.8568 6.89221 2.95353 7.2935 2.26146 7.95821C1.56939 8.62293 1.13228 9.50912 1.02574 10.4628L0 19.8068C0.00506676 21.0597 0.507103 22.2593 1.39596 23.1422C2.28481 24.0252 3.48801 24.5192 4.74087 24.5159H17.2594C18.5123 24.5192 19.7152 24.0252 20.604 23.1422C21.4929 22.2593 21.9949 21.0597 22 19.8068L20.9723 10.4606ZM6.61973 6.54728C6.61959 5.97696 6.73168 5.41221 6.94983 4.88526C7.16797 4.35832 7.48797 3.87958 7.89118 3.47625C8.2944 3.07293 8.7729 2.7529 9.29978 2.53462C9.82667 2.31634 10.3915 2.20411 10.9618 2.20411C11.5322 2.20357 12.0971 2.31563 12.6241 2.53393C13.1511 2.75224 13.63 3.07236 14.033 3.47611C14.4369 3.87899 14.7572 4.35769 14.9757 4.88471C15.1942 5.41174 15.3065 5.97675 15.3061 6.54728V6.81072H6.61973V6.54728ZM7.47644 12.935C7.33314 12.9352 7.19109 12.9071 7.05867 12.8523C6.92625 12.7975 6.80599 12.7171 6.70466 12.6158C6.60334 12.5145 6.52306 12.3942 6.46829 12.2618C6.41352 12.1294 6.38541 11.9875 6.38556 11.8442C6.38541 11.7009 6.41352 11.5589 6.46829 11.4265C6.52306 11.2941 6.60334 11.1737 6.70466 11.0724C6.80599 10.9711 6.92625 10.8908 7.05867 10.836C7.19109 10.7812 7.33314 10.7531 7.47644 10.7533C7.61994 10.753 7.76208 10.7809 7.89476 10.8356C8.02743 10.8903 8.14796 10.9705 8.24959 11.0718C8.35121 11.1731 8.43197 11.2935 8.48706 11.426C8.54214 11.5585 8.57046 11.7007 8.57061 11.8442C8.57046 11.9877 8.54214 12.1297 8.48706 12.2622C8.43197 12.3947 8.35121 12.515 8.24959 12.6164C8.14796 12.7177 8.02743 12.7979 7.89476 12.8526C7.76208 12.9073 7.61994 12.9353 7.47644 12.935ZM14.526 12.935C14.3825 12.9353 14.2404 12.9073 14.1077 12.8526C13.975 12.7979 13.8545 12.7177 13.7529 12.6164C13.6513 12.515 13.5705 12.3947 13.5154 12.2622C13.4603 12.1297 13.432 11.9877 13.4319 11.8442C13.432 11.7007 13.4603 11.5585 13.5154 11.426C13.5705 11.2935 13.6513 11.1731 13.7529 11.0718C13.8545 10.9705 13.975 10.8903 14.1077 10.8356C14.2404 10.7809 14.3825 10.753 14.526 10.7533C14.6693 10.7531 14.8111 10.7812 14.9435 10.836C15.0759 10.8908 15.1965 10.9711 15.2978 11.0724C15.3991 11.1737 15.4794 11.2941 15.5342 11.4265C15.589 11.5589 15.6171 11.7009 15.6169 11.8442C15.6171 11.9875 15.589 12.1294 15.5342 12.2618C15.4794 12.3942 15.3991 12.5145 15.2978 12.6158C15.1965 12.7171 15.0759 12.7975 14.9435 12.8523C14.8111 12.9071 14.6693 12.9352 14.526 12.935Z" fill="#046295"/>
</svg>
