<svg width="21" height="22" viewBox="0 0 21 22" fill="none" xmlns="http://www.w3.org/2000/svg">
<path d="M19.5034 21.3293C17.1534 21.3293 14.8178 20.7514 12.4966 19.5957C10.1755 18.4399 8.09031 16.9374 6.2411 15.0882C4.39188 13.239 2.8894 11.1538 1.73364 8.83265C0.577879 6.5115 0 4.17591 0 1.82586C0 1.45987 0.125207 1.15167 0.375622 0.901257C0.626036 0.650842 0.934238 0.525635 1.30023 0.525635H5.34539C5.61506 0.525635 5.85103 0.617132 6.05329 0.800127C6.25555 0.983123 6.38557 1.22872 6.44336 1.53692L7.22349 5.17756C7.26202 5.44724 7.2572 5.69284 7.20905 5.91436C7.16089 6.13588 7.05976 6.32369 6.90566 6.47779L4.01626 9.39608C5.09497 11.1875 6.3037 12.7478 7.64246 14.0769C8.98121 15.406 10.4981 16.5329 12.1933 17.4575L14.9382 14.6259C15.1308 14.414 15.3523 14.2647 15.6027 14.178C15.8532 14.0914 16.1036 14.0769 16.354 14.1347L19.7924 14.8859C20.0813 14.9437 20.3221 15.0882 20.5147 15.3194C20.7073 15.5505 20.8037 15.8202 20.8037 16.1284V20.0291C20.8037 20.3951 20.6785 20.7033 20.428 20.9537C20.1776 21.2041 19.8694 21.3293 19.5034 21.3293Z" fill="#00AEEF"/>
</svg>
