<svg width="16" height="17" viewBox="0 0 16 17" fill="none" xmlns="http://www.w3.org/2000/svg">
<path d="M15.1564 7.94394L1.40636 1.06894C1.29859 1.01504 1.17754 0.993446 1.05778 1.00675C0.938028 1.02006 0.82467 1.0677 0.731361 1.14394C0.642251 1.21862 0.57574 1.31668 0.539304 1.42709C0.502869 1.5375 0.497953 1.65589 0.525111 1.76894L2.37511 8.50019L0.500111 15.2127C0.474627 15.3071 0.471653 15.4062 0.491426 15.5019C0.511199 15.5977 0.553169 15.6875 0.61396 15.7641C0.674751 15.8407 0.752668 15.902 0.841444 15.943C0.930221 15.984 1.02738 16.0036 1.12511 16.0002C1.22295 15.9996 1.31928 15.9761 1.40636 15.9314L15.1564 9.05644C15.2587 9.00399 15.3447 8.9243 15.4046 8.82616C15.4646 8.72801 15.4964 8.61522 15.4964 8.50019C15.4964 8.38516 15.4646 8.27236 15.4046 8.17422C15.3447 8.07607 15.2587 7.99639 15.1564 7.94394ZM2.09386 14.1939L3.47511 9.12519H9.25011V7.87519H3.47511L2.09386 2.80644L13.4751 8.50019L2.09386 14.1939Z" fill="#00AEEF" stroke="#00AEEF" stroke-width="0.5"/>
</svg>
