<svg width="37" height="35" viewBox="0 0 37 35" fill="none" xmlns="http://www.w3.org/2000/svg">
<path d="M7.14148 6.34237C5.79257 6.34237 4.41412 6.34524 3.03427 6.34093C2.49555 6.33949 1.95401 6.35672 1.42092 6.29786C0.838594 6.23182 0.47851 5.7767 0.488356 5.23114C0.499609 4.67983 0.866726 4.27927 1.4603 4.19457C1.66848 4.16585 1.88087 4.16729 2.09186 4.16729C3.54485 4.16442 4.99785 4.16729 6.44944 4.16729C6.68153 4.16729 6.91361 4.16729 7.19633 4.16729C7.67879 2.56793 8.58182 1.33898 10.1051 0.687171C11.1291 0.249284 12.1925 0.21052 13.2685 0.496223C15.4234 1.06906 16.9116 3.22548 16.8117 5.48813C16.7161 7.64023 15.166 9.61431 13.0294 10.0766C11.7522 10.3523 10.5173 10.1699 9.3906 9.43341C8.49883 8.85196 8.23158 8.49878 7.14148 6.34237ZM11.9689 8.01495C13.4837 8.01495 14.6906 6.79317 14.692 5.25411C14.692 3.71648 13.4894 2.4904 11.9745 2.48753C10.4666 2.48466 9.24291 3.72223 9.2415 5.24837C9.2401 6.77451 10.4624 8.01351 11.9689 8.01495Z" fill="#046295"/>
<path d="M6.0273 30.4621C4.7881 30.4621 3.57422 30.4636 2.36034 30.4621C2.05652 30.4621 1.74989 30.4707 1.44888 30.4305C0.865149 30.353 0.493812 29.9323 0.489592 29.3868C0.485372 28.8412 0.84827 28.4105 1.432 28.3272C1.77802 28.2784 2.13248 28.2899 2.48272 28.2885C3.65158 28.2842 4.81904 28.287 6.02167 28.287C6.48162 26.7566 7.31572 25.5736 8.74481 24.8974C9.78427 24.4064 10.8575 24.326 11.9602 24.5887C13.9787 25.0682 15.7172 26.9949 15.6342 29.549C15.5569 31.8978 13.7902 33.9308 11.6367 34.2509C8.99799 34.6429 6.80232 33.1598 6.02589 30.4636L6.0273 30.4621ZM10.8111 26.6145C9.28493 26.6044 8.08372 27.8061 8.07809 29.3523C8.07106 30.9144 9.23992 32.1275 10.7618 32.1404C12.2711 32.1534 13.5019 30.9345 13.5244 29.404C13.5469 27.8922 12.3147 26.6259 10.8125 26.6159L10.8111 26.6145Z" fill="#046295"/>
<path d="M30.9815 18.403C29.8239 21.8457 27.2681 22.5234 25.2455 22.1702C23.04 21.7854 21.3282 19.6262 21.3268 17.3161C21.3268 15.0061 23.0372 12.8468 25.2441 12.4606C27.2892 12.1031 29.8366 12.8066 30.9801 16.2264C31.4851 16.2264 32.0196 16.2264 32.5527 16.2264C33.4894 16.2279 34.4262 16.2063 35.3616 16.2408C36.0776 16.2681 36.508 16.7289 36.4869 17.3492C36.4672 17.9407 36.0494 18.3628 35.363 18.3872C34.3812 18.4216 33.3966 18.4001 32.4134 18.403C31.9464 18.403 31.4794 18.403 30.9801 18.403H30.9815ZM28.9012 17.3319C28.9054 15.7728 27.7337 14.5625 26.2104 14.5539C24.7011 14.5452 23.4718 15.7685 23.4549 17.296C23.438 18.8093 24.6716 20.0698 26.1752 20.0755C27.7 20.0813 28.897 18.8767 28.9012 17.3319Z" fill="#046295"/>
<path d="M26.8574 30.4619C24.2327 30.4619 21.6081 30.4619 18.9848 30.4605C18.7288 30.4605 18.4672 30.4562 18.2154 30.4074C17.7132 30.3112 17.3841 29.9077 17.3672 29.4124C17.3489 28.8884 17.6795 28.4577 18.2154 28.3443C18.4419 28.2969 18.6796 28.2883 18.9131 28.2883C24.2553 28.2854 29.5988 28.2854 34.941 28.2883C35.1745 28.2883 35.4122 28.2969 35.6387 28.3443C36.1704 28.4563 36.5052 28.8927 36.4883 29.411C36.4714 29.9034 36.1409 30.3097 35.6401 30.4059C35.3897 30.4533 35.1281 30.4591 34.8707 30.4591C32.1996 30.4619 29.5285 30.4619 26.8574 30.4619Z" fill="#046295"/>
<path d="M10.0502 18.4029C7.40299 18.4029 4.7544 18.4044 2.10722 18.4001C1.82731 18.4001 1.54177 18.3915 1.2703 18.3283C0.787847 18.2177 0.471367 17.7669 0.488246 17.2788C0.503718 16.8165 0.813166 16.4059 1.2689 16.2997C1.51646 16.2422 1.77949 16.2293 2.03548 16.2293C7.37767 16.225 12.7199 16.225 18.0635 16.2293C18.3195 16.2293 18.5825 16.2408 18.83 16.2997C19.3139 16.4131 19.6262 16.8567 19.6093 17.3506C19.5938 17.8157 19.2886 18.2264 18.83 18.3297C18.5586 18.39 18.273 18.4001 17.9931 18.4015C15.3459 18.4058 12.6974 18.4044 10.0502 18.4044V18.4029Z" fill="#046295"/>
<path d="M27.4635 6.3423C25.0498 6.3423 22.6347 6.34373 20.221 6.33943C19.9411 6.33943 19.6556 6.33512 19.3827 6.27913C18.8777 6.17576 18.5627 5.76658 18.5542 5.26553C18.5458 4.74006 18.889 4.31223 19.4249 4.2146C19.6542 4.17296 19.8905 4.16866 20.124 4.16866C25.047 4.16579 29.9686 4.16579 34.8917 4.16866C35.1716 4.16866 35.4585 4.17871 35.7286 4.24188C36.1773 4.34668 36.4825 4.77739 36.4881 5.23825C36.4937 5.70341 36.2026 6.13699 35.7525 6.25328C35.4838 6.3222 35.1969 6.33655 34.9184 6.33655C32.4344 6.3423 29.9489 6.33943 27.4649 6.33943L27.4635 6.3423Z" fill="#046295"/>
</svg>
