<svg width="21" height="21" viewBox="0 0 21 21" fill="none" xmlns="http://www.w3.org/2000/svg">
<path d="M4.99613 12.7494L3.46179 19.3934C3.41428 19.5946 3.42854 19.8054 3.50272 19.9984C3.57689 20.1913 3.70753 20.3574 3.87758 20.475C4.04762 20.5925 4.24916 20.6561 4.45587 20.6573C4.66259 20.6585 4.86487 20.5974 5.0363 20.4819L10.6433 16.7438L16.2504 20.4819C16.4258 20.5983 16.6327 20.6583 16.8432 20.6537C17.0537 20.649 17.2577 20.5801 17.4278 20.456C17.598 20.332 17.726 20.1588 17.7948 19.9598C17.8636 19.7608 17.8698 19.5456 17.8126 19.3429L15.9291 12.7525L20.6001 8.54898C20.7497 8.41427 20.8566 8.23867 20.9074 8.04389C20.9583 7.84911 20.9509 7.64369 20.8863 7.45304C20.8216 7.26239 20.7025 7.09487 20.5437 6.9712C20.3848 6.84752 20.1932 6.77312 19.9926 6.75719L14.1219 6.28968L11.5815 0.666146C11.5005 0.485068 11.3688 0.331304 11.2023 0.22341C11.0359 0.115517 10.8417 0.0581055 10.6433 0.0581055C10.445 0.0581055 10.2508 0.115517 10.0844 0.22341C9.91792 0.331304 9.78624 0.485068 9.70524 0.666146L7.16481 6.28968L1.29414 6.75616C1.0969 6.77179 0.908328 6.84391 0.750998 6.96389C0.593668 7.08388 0.474237 7.24666 0.406994 7.43274C0.339751 7.61883 0.327542 7.82035 0.371829 8.01319C0.416117 8.20604 0.515024 8.38204 0.656718 8.52014L4.99613 12.7494V12.7494ZM7.93405 8.29462C8.11785 8.28014 8.29438 8.21648 8.44512 8.11031C8.59586 8.00414 8.71526 7.85937 8.79081 7.69118L10.6433 3.5917L12.4959 7.69118C12.5714 7.85937 12.6908 8.00414 12.8416 8.11031C12.9923 8.21648 13.1688 8.28014 13.3527 8.29462L17.4429 8.619L14.0745 11.6506C13.7821 11.9142 13.6657 12.32 13.7728 12.6989L15.0631 17.2144L11.2159 14.6493C11.047 14.5359 10.8483 14.4754 10.6449 14.4754C10.4415 14.4754 10.2428 14.5359 10.0739 14.6493L6.0537 17.3298L7.13495 12.6485C7.1746 12.4763 7.16928 12.2968 7.1195 12.1273C7.06973 11.9578 6.97717 11.8039 6.85074 11.6805L3.72232 8.63033L7.93405 8.29462V8.29462Z" fill="#F2C94C"/>
</svg>
