<svg width="17" height="19" viewBox="0 0 17 19" fill="none" xmlns="http://www.w3.org/2000/svg">
<path d="M7.37534 18.5177C6.89628 18.5178 6.41842 18.4697 5.94902 18.374C5.04384 18.1886 4.18404 17.8267 3.41866 17.3091C2.28078 16.541 1.39011 15.4593 0.854545 14.1952C0.67349 13.7671 0.535265 13.3222 0.441892 12.8668C0.250164 11.9256 0.250164 10.9554 0.441892 10.0142C0.627301 9.10903 0.989131 8.24922 1.50673 7.48384C2.27489 6.34597 3.35657 5.45529 4.62069 4.91973C5.04876 4.73868 5.49371 4.60045 5.94902 4.50708C6.89023 4.31535 7.86044 4.31535 8.80166 4.50708C9.70683 4.69249 10.5666 5.05432 11.332 5.57192C12.4699 6.34008 13.3606 7.42175 13.8961 8.68587C14.0772 9.11394 14.2154 9.55889 14.3088 10.0142C14.4973 10.9404 14.5003 11.8948 14.3175 12.8222C14.1607 13.6199 13.866 14.3841 13.4465 15.0804C12.8182 16.1294 11.9286 16.9976 10.8644 17.6001C9.80034 18.2026 8.59816 18.5187 7.37534 18.5177ZM9.81315 8.12514C9.69847 8.12505 9.5849 8.14761 9.47896 8.19152C9.37302 8.23543 9.2768 8.29982 9.1958 8.38101L6.72206 10.8515C6.55819 11.0156 6.46624 11.2382 6.46644 11.4701C6.46665 11.7021 6.55899 11.9245 6.72315 12.0884C6.88731 12.2522 7.10985 12.3442 7.34181 12.344C7.57377 12.3438 7.79615 12.2514 7.96002 12.0873L9.1958 10.8515L10.4316 9.61679C10.5551 9.49515 10.6395 9.3394 10.674 9.1695C10.7085 8.99959 10.6916 8.82326 10.6253 8.66306C10.559 8.50287 10.4464 8.3661 10.3019 8.27027C10.1574 8.17444 9.98761 8.12391 9.81424 8.12514H9.81315Z" fill="#00AEEF"/>
<path d="M3.91138 0.925599C3.91138 0.680147 4.00888 0.444749 4.18244 0.271188C4.356 0.097628 4.5914 0.000122786 4.83685 0.000122786L10.3897 0.000122786C10.6352 0.000122786 10.8706 0.097628 11.0441 0.271188C11.2177 0.444749 11.3152 0.680147 11.3152 0.925599C11.3152 1.17105 11.2177 1.40645 11.0441 1.58001C10.8706 1.75357 10.6352 1.85107 10.3897 1.85107L4.83685 1.85107C4.5914 1.85107 4.356 1.75357 4.18244 1.58001C4.00888 1.40645 3.91138 1.17105 3.91138 0.925599V0.925599Z" fill="#00AEEF"/>
<path d="M13.4101 2.65399C13.5894 2.47471 13.8325 2.37399 14.0861 2.37399C14.3396 2.37399 14.5828 2.47471 14.762 2.65399L15.9831 3.87504C16.1624 4.05432 16.2631 4.29747 16.2631 4.55101C16.2631 4.80455 16.1624 5.0477 15.9831 5.22698C15.8038 5.40625 15.5607 5.50697 15.3071 5.50697C15.0536 5.50697 14.8104 5.40625 14.6312 5.22698L13.4101 4.00592C13.2308 3.82665 13.1301 3.58349 13.1301 3.32996C13.1301 3.07642 13.2308 2.83327 13.4101 2.65399Z" fill="#00AEEF"/>
</svg>
