<svg width="27" height="23" viewBox="0 0 27 23" fill="none" xmlns="http://www.w3.org/2000/svg">
<path d="M8.77847 23C18.4697 23 23.7719 14.1503 23.7719 6.47824C23.7719 6.22945 23.7669 5.97513 23.7568 5.72634C24.7883 4.90439 25.6784 3.88628 26.3853 2.71986C25.4247 3.19082 24.4048 3.4984 23.3605 3.63209C24.4601 2.90576 25.2835 1.76472 25.6779 0.420501C24.6434 1.09608 23.5121 1.57264 22.3324 1.82975C21.5376 0.899113 20.4867 0.282919 19.3422 0.0764389C18.1977 -0.130041 17.0233 0.0846943 16.0007 0.687444C14.978 1.29019 14.164 2.24739 13.6846 3.41103C13.2051 4.57468 13.0869 5.87997 13.3481 7.12509C11.2534 7.00926 9.20423 6.40964 7.33333 5.36512C5.46243 4.3206 3.81162 2.85448 2.4879 1.06182C1.81512 2.34002 1.60925 3.85254 1.91213 5.29199C2.21501 6.73143 3.00391 7.98979 4.1185 8.81132C3.28173 8.78205 2.46329 8.53379 1.73081 8.08707V8.15894C1.73006 9.50031 2.15089 10.8006 2.92176 11.8387C3.69263 12.8768 4.76596 13.5887 5.95931 13.8534C5.18417 14.0871 4.37064 14.1212 3.58165 13.953C3.91839 15.1065 4.57357 16.1155 5.45574 16.839C6.3379 17.5625 7.40305 17.9645 8.50253 17.9889C6.63595 19.6046 4.33017 20.4809 1.95658 20.4768C1.53565 20.476 1.11512 20.4476 0.697266 20.3916C3.10858 22.0963 5.91358 23.0017 8.77847 23Z" fill="#00AEEF"/>
</svg>
